<svg width="133" height="136" viewBox="0 0 133 136" fill="none" xmlns="http://www.w3.org/2000/svg">
<g clip-path="url(#clip0_1_259)">
<rect width="132.6" height="135.7" fill="#D9D9D9"/>
<path d="M23.95 134.92H101.21C101.21 134.92 100.19 117.18 91.99 104.19C86.72 95.85 73.55 92.78 73.55 92.78L52.48 92.34C52.48 92.34 23.51 99.8 23.94 134.92H23.95Z" fill="black"/>
<path d="M101.21 135.7H23.95C23.53 135.7 23.18 135.36 23.18 134.94C22.74 99.62 52 91.67 52.3 91.6C52.37 91.58 52.44 91.58 52.51 91.58L73.58 92.02C73.63 92.02 73.69 92.02 73.74 92.04C74.29 92.17 87.28 95.28 92.66 103.79C100.87 116.79 101.99 134.71 102 134.89C102.01 135.1 101.94 135.31 101.79 135.47C101.64 135.63 101.44 135.71 101.23 135.71L101.21 135.7ZM24.71 134.15H100.38C100.06 130.53 98.35 115.7 91.34 104.61C86.51 96.96 74.52 93.82 73.45 93.55L52.58 93.12C50.77 93.64 24.71 101.72 24.72 134.15H24.71Z" fill="#231F20"/>
<path d="M56.87 75.51L52.48 92.92C52.48 92.92 68.58 97.9 73.55 92.33C73.77 84.28 71.79 73.75 71.79 73.75L56.86 75.51H56.87Z" fill="#FFDCC9"/>
<path d="M65.11 95.74C59.09 95.74 52.67 93.79 52.25 93.66C51.86 93.54 51.63 93.13 51.73 92.73L56.12 75.32C56.2 75.01 56.46 74.78 56.78 74.74L71.71 72.98C72.12 72.93 72.49 73.21 72.56 73.61C72.58 73.72 74.55 84.32 74.33 92.36C74.33 92.54 74.26 92.72 74.13 92.86C72.17 95.05 68.71 95.75 65.11 95.75V95.74ZM53.41 92.38C56.46 93.22 68.57 96.22 72.78 92.02C72.92 85.39 71.58 77.06 71.16 74.61L57.49 76.22L53.41 92.39V92.38Z" fill="#231F20"/>
<path d="M54.2401 79.17C54.2401 79.17 66.09 89.05 73.34 87.29C72.68 80.49 71.14 74.34 71.14 74.34L54.2401 79.17Z" fill="#231F20"/>
<path d="M39.55 132.8C39.16 132.8 38.83 132.51 38.78 132.11C38.06 125.79 39.41 119.27 42.58 113.75C42.79 113.38 43.26 113.25 43.64 113.46C44.01 113.67 44.14 114.15 43.93 114.52C40.92 119.75 39.64 125.94 40.32 131.93C40.37 132.35 40.06 132.74 39.64 132.79C39.61 132.79 39.58 132.79 39.55 132.79V132.8Z" fill="#666666"/>
<path d="M81.24 131.89C81.24 131.89 81.18 131.89 81.15 131.89C80.73 131.84 80.42 131.46 80.46 131.04C81.1 125.27 80.15 119.44 77.73 114.16C77.55 113.77 77.73 113.31 78.11 113.13C78.5 112.95 78.96 113.13 79.14 113.51C81.68 119.04 82.67 125.16 82 131.2C81.96 131.6 81.62 131.89 81.23 131.89H81.24Z" fill="#666666"/>
<path d="M70.03 128.37C68.21 128.37 66.39 128.19 64.6 127.84C64.32 127.78 64.09 127.58 64.01 127.31C63.93 127.04 64 126.74 64.2 126.54L66.02 124.68L59.86 126.14C58.49 126.46 58.01 125.78 57.87 125.47C57.63 124.95 57.76 124.37 58.26 123.75C59.21 122.58 60.21 121.43 61.24 120.33C57.73 121.09 54.35 122.51 51.36 124.5C51 124.74 50.52 124.64 50.29 124.28C50.05 123.92 50.15 123.44 50.51 123.21C54.35 120.65 58.8 118.99 63.37 118.39C63.7 118.35 64.02 118.52 64.17 118.82C64.32 119.12 64.25 119.48 64.02 119.71C62.45 121.25 60.95 122.9 59.56 124.61L68.29 122.54C68.63 122.46 68.97 122.61 69.14 122.91C69.31 123.21 69.26 123.59 69.02 123.83L66.36 126.54C68.38 126.82 70.43 126.87 72.46 126.69C72.89 126.65 73.26 126.97 73.3 127.39C73.34 127.82 73.02 128.19 72.6 128.23C71.75 128.31 70.89 128.35 70.04 128.35L70.03 128.37Z" fill="#666666"/>
<path d="M45.02 52.39C45.02 52.39 38.58 47.71 37.41 52.39C36.24 57.07 45.02 55.32 45.02 55.32V52.39Z" fill="#FFDCC9"/>
<path d="M41.7 56.42C40.06 56.42 38.25 56.15 37.27 55.12C36.79 54.61 36.29 53.69 36.66 52.21C37.05 50.63 37.97 50 38.67 49.75C41.28 48.8 45.05 51.47 45.47 51.78C45.67 51.93 45.79 52.16 45.79 52.41V55.34C45.79 55.71 45.53 56.03 45.17 56.1C44.87 56.16 43.37 56.44 41.7 56.44V56.42ZM39.9 51.08C39.65 51.08 39.41 51.11 39.2 51.19C38.69 51.38 38.35 51.83 38.16 52.57C37.94 53.44 38.19 53.82 38.39 54.04C39.34 55.03 42.25 54.97 44.24 54.66V52.79C43.27 52.15 41.32 51.08 39.9 51.08Z" fill="#231F20"/>
<path d="M81.6 51.51C81.6 51.51 88.51 47.97 88.92 50.63C89.51 54.43 81.9 54.43 81.9 54.43L81.61 51.5L81.6 51.51Z" fill="#FFDCC9"/>
<path d="M81.9 55.21C81.5 55.21 81.17 54.91 81.13 54.51L80.84 51.58C80.81 51.26 80.97 50.96 81.26 50.81C82.16 50.35 86.73 48.11 88.72 49.12C89.26 49.4 89.6 49.88 89.7 50.5C89.84 51.43 89.6 52.3 89.01 52.99C87.17 55.13 82.45 55.19 81.92 55.19L81.9 55.21ZM82.43 51.97L82.6 53.64C84.15 53.55 86.83 53.16 87.82 52C88.13 51.64 88.24 51.25 88.16 50.75C88.14 50.59 88.08 50.55 88.01 50.51C87.14 50.07 84.34 51.05 82.43 51.96V51.97Z" fill="#231F20"/>
<path d="M83.3601 74.34C80.4301 80.19 43.2601 82.83 40.9201 75.22C40.5001 73.86 40.5301 71.59 40.8501 68.74C42.3701 55.65 50.4101 30.43 52.3301 26.35C54.6701 21.37 64.3301 21.37 64.3301 21.37C72.8201 20.78 79.5701 19.3 82.4001 32.2C84.4701 41.63 84.2001 59.11 83.7601 68.33C83.6101 71.4 83.7201 73.6 83.3501 74.35L83.3601 74.34Z" fill="#FFDCC9"/>
<path d="M57.9 80.67C55.98 80.67 54.14 80.6 52.49 80.46C47.45 80.04 41.23 78.83 40.18 75.44C39.75 74.05 39.72 71.82 40.08 68.64C41.58 55.72 49.55 30.44 51.63 26.01C54.15 20.65 63.92 20.59 64.33 20.59C64.85 20.55 65.41 20.51 65.97 20.47C73.7 19.87 80.37 19.35 83.16 32.03C85.6 43.15 84.73 64.25 84.54 68.36C84.49 69.32 84.47 70.19 84.45 70.96C84.4 72.87 84.38 74.02 84.04 74.69C82.09 78.59 68.56 80.67 57.89 80.67H57.9ZM70.62 21.77C69.21 21.77 67.71 21.89 66.1 22.01C65.54 22.05 64.97 22.1 64.39 22.14C64.24 22.14 55.14 22.2 53.03 26.68C51.28 30.41 43.16 55.47 41.61 68.83C41.28 71.75 41.29 73.83 41.65 74.99C42.26 76.96 46.25 78.4 52.6 78.92C64.73 79.93 81.02 77.26 82.65 73.99C82.83 73.63 82.86 72.31 82.89 70.92C82.91 70.14 82.93 69.26 82.98 68.29C83.18 64.21 84.03 43.29 81.64 32.36C79.67 23.4 75.85 21.77 70.6 21.77H70.62Z" fill="#231F20"/>
<path d="M83.4701 24.79C83.4701 24.79 83.38 24.77 83.35 24.77C79.9 24.27 77.5 24.05 74 24C71.42 23.96 68.8201 26.18 66.4801 27.28C64.1401 28.36 57.61 28.4 54.97 26.93C49.71 26.77 52.76 22.51 55.97 19.27C57.12 18.11 58.29 17.08 59.11 16.42C62.69 13.54 67.49 11.92 71.93 10.96C72.32 10.87 72.83 10.84 73.06 11.17C73.25 11.44 73.15 11.81 73.02 12.11C72.46 13.47 71.54 14.67 70.38 15.56C75.18 14.34 80.6 13.73 84.81 16.34C83.22 17.68 81.3 18.63 79.27 19.08C81.24 20.44 82.75 22.49 83.46 24.78L83.4701 24.79Z" fill="#7D654D"/>
<path d="M61.26 28.84C58.83 28.84 56.31 28.48 54.76 27.69C53.01 27.6 51.91 27.04 51.51 26.02C50.87 24.4 52.14 22.01 55.42 18.71C56.44 17.68 57.64 16.6 58.63 15.8C61.75 13.29 66.18 11.4 71.78 10.19C72.9 9.94998 73.45 10.34 73.71 10.71C74.01 11.16 74.03 11.72 73.75 12.39C73.48 13.04 73.14 13.66 72.74 14.23C76.6 13.49 81.33 13.25 85.24 15.68C85.45 15.81 85.59 16.03 85.6 16.28C85.61 16.53 85.52 16.77 85.33 16.93C84.04 18.02 82.55 18.86 80.95 19.41C82.47 20.79 83.61 22.57 84.22 24.55C84.3 24.81 84.24 25.1 84.05 25.3C83.86 25.5 83.58 25.59 83.31 25.53L83.47 24.77L83.3 25.53C79.66 25 77.33 24.81 73.98 24.76C72.39 24.76 70.7 25.74 69.05 26.72C68.31 27.16 67.54 27.62 66.8 27.96C65.58 28.52 63.46 28.83 61.26 28.83V28.84ZM72.36 11.67C72.3 11.67 72.21 11.69 72.1 11.71C66.74 12.87 62.53 14.65 59.6 17.02C58.65 17.78 57.5 18.82 56.52 19.81C53.46 22.89 52.67 24.75 52.95 25.45C53.11 25.86 53.86 26.11 55 26.15C55.12 26.15 55.24 26.19 55.35 26.25C57.72 27.57 64 27.57 66.15 26.57C66.82 26.26 67.52 25.84 68.27 25.4C70.1 24.32 72 23.22 74.01 23.22C77.05 23.27 79.28 23.43 82.29 23.84C81.54 22.19 80.35 20.76 78.85 19.73C78.6 19.56 78.47 19.25 78.53 18.94C78.59 18.64 78.82 18.4 79.12 18.33C80.65 17.99 82.12 17.35 83.41 16.45C80.24 14.94 76.12 14.9 70.58 16.31C70.23 16.4 69.85 16.23 69.69 15.9C69.53 15.57 69.62 15.17 69.92 14.95C70.98 14.14 71.81 13.05 72.31 11.82C72.33 11.76 72.35 11.72 72.36 11.68V11.67Z" fill="#231F20"/>
<path d="M58.63 25C58.52 25 58.41 24.98 58.3 24.93C57.91 24.75 57.75 24.28 57.93 23.9C59.22 21.18 62.21 19.34 65.23 19.41C65.66 19.42 66 19.78 65.98 20.2C65.97 20.62 65.62 20.95 65.21 20.95H65.19C62.81 20.87 60.36 22.37 59.33 24.56C59.2 24.84 58.92 25 58.63 25Z" fill="#231F20"/>
<path d="M65.11 24.1C64.93 24.1 64.76 24.04 64.61 23.92C64.28 23.64 64.24 23.16 64.52 22.83C66.63 20.33 70.26 19.3 73.36 20.33C73.77 20.46 73.99 20.9 73.85 21.31C73.72 21.72 73.28 21.93 72.87 21.8C70.39 20.98 67.38 21.83 65.7 23.83C65.55 24.01 65.33 24.11 65.11 24.11V24.1Z" fill="#231F20"/>
<path d="M52.0301 24.19C52.0301 24.19 51.9901 24.19 51.9601 24.19C51.5301 24.16 51.2201 23.78 51.2501 23.35C51.3701 21.85 51.2901 20.35 51.0001 18.88C50.9201 18.46 51.1901 18.05 51.6101 17.97C52.0301 17.88 52.4401 18.16 52.5201 18.58C52.8401 20.19 52.9401 21.84 52.8001 23.48C52.7701 23.88 52.4301 24.19 52.0301 24.19Z" fill="#231F20"/>
<path d="M53.56 21.86C53.56 21.86 53.47 21.86 53.43 21.85C53.01 21.78 52.73 21.38 52.8 20.96L53.77 15.36C53.84 14.94 54.25 14.66 54.66 14.73C55.08 14.8 55.36 15.2 55.29 15.62L54.32 21.22C54.25 21.6 53.93 21.86 53.56 21.86Z" fill="#231F20"/>
<path d="M65.07 44.27C65.07 49.12 60.73 55.25 57.28 55.25C53.83 55.25 51.02 51.32 51.02 46.47C51.02 41.62 56.56 37.25 60.02 37.25C63.48 37.25 65.07 39.42 65.07 44.27Z" fill="white"/>
<path d="M57.28 56.02C53.4 56.02 50.25 51.73 50.25 46.47C50.25 41.21 56.25 36.48 60.02 36.48C63.79 36.48 65.84 39.03 65.84 44.28C65.84 49.53 61.12 56.03 57.27 56.03L57.28 56.02ZM60.02 38.02C56.93 38.02 51.79 42.11 51.79 46.46C51.79 50.81 54.25 54.47 57.27 54.47C60.04 54.47 64.29 49 64.29 44.27C64.29 38.76 62.13 38.02 60.02 38.02Z" fill="#231F20"/>
<path d="M67.1 41.59C64.96 45.94 66.14 53.35 69.24 54.88C72.34 56.41 76.59 54.12 78.73 49.77C80.87 45.42 77.83 39.05 74.73 37.52C71.63 35.99 69.24 37.24 67.1 41.59Z" fill="white"/>
<path d="M71.3 56.12C70.47 56.12 69.66 55.94 68.91 55.57C67.21 54.73 65.95 52.49 65.45 49.41C64.98 46.48 65.34 43.42 66.42 41.24C68.74 36.53 71.58 35.09 75.09 36.82C76.81 37.67 78.48 39.77 79.44 42.31C80.5 45.12 80.5 47.96 79.44 50.11C77.62 53.81 74.32 56.12 71.31 56.12H71.3ZM72.4 37.67C70.98 37.67 69.43 38.64 67.81 41.94C66.87 43.85 66.56 46.55 66.98 49.18C67.38 51.68 68.38 53.6 69.59 54.19C72.3 55.52 76.09 53.39 78.05 49.43C78.92 47.66 78.9 45.27 77.99 42.86C77.18 40.71 75.77 38.89 74.41 38.22C73.78 37.91 73.11 37.67 72.41 37.67H72.4Z" fill="#231F20"/>
<path d="M58.63 48.81C59.4805 48.81 60.17 48.1205 60.17 47.27C60.17 46.4195 59.4805 45.73 58.63 45.73C57.7795 45.73 57.09 46.4195 57.09 47.27C57.09 48.1205 57.7795 48.81 58.63 48.81Z" fill="black"/>
<path d="M72.09 48.44C72.9406 48.44 73.63 47.7505 73.63 46.9C73.63 46.0495 72.9406 45.36 72.09 45.36C71.2395 45.36 70.55 46.0495 70.55 46.9C70.55 47.7505 71.2395 48.44 72.09 48.44Z" fill="black"/>
<path d="M58.61 60.42C57.91 60.42 57.21 60.38 56.52 60.29C55.84 60.2 54.95 59.89 54.51 59.25C54.25 58.88 54.17 58.46 54.26 58.03C54.45 57.18 55.27 56.8 55.61 56.64C58.14 55.47 60.96 54.82 63.74 54.75H63.76C64.18 54.75 64.52 55.09 64.53 55.51C64.53 55.94 64.2 56.29 63.77 56.3C61.19 56.36 58.59 56.96 56.25 58.05C55.81 58.25 55.76 58.36 55.76 58.37C55.8 58.45 56.18 58.69 56.7 58.76C60.38 59.22 64.27 58.32 67.37 56.29C67.73 56.06 68.21 56.16 68.44 56.51C68.67 56.87 68.57 57.35 68.22 57.58C65.4 59.43 61.98 60.42 58.6 60.42H58.61Z" fill="#231F20"/>
<path d="M54.5201 36.47C54.4101 36.47 54.2901 36.44 54.1801 36.39C53.8001 36.2 53.6401 35.74 53.8301 35.35C54.8601 33.25 56.6901 31.52 58.8501 30.6C59.2401 30.43 59.7001 30.61 59.8701 31.01C60.0401 31.4 59.8501 31.86 59.4601 32.03C57.6401 32.81 56.1001 34.27 55.2201 36.04C55.0901 36.31 54.8101 36.47 54.5301 36.47H54.5201Z" fill="#231F20"/>
<path d="M74.44 35.25C74.27 35.25 74.1 35.19 73.96 35.08C72.75 34.12 71.23 33.58 69.68 33.58C69.25 33.58 68.91 33.23 68.91 32.8C68.91 32.37 69.26 32.03 69.68 32.03C71.58 32.03 73.44 32.69 74.92 33.87C75.26 34.14 75.31 34.62 75.04 34.96C74.89 35.15 74.66 35.25 74.43 35.25H74.44Z" fill="#231F20"/>
<g style="mix-blend-mode:multiply" opacity="0.31">
<path d="M83.36 74.34C80.43 80.19 43.26 82.83 40.92 75.22C40.5 73.86 40.53 71.59 40.85 68.74C41.19 69.72 41.61 70.67 42.34 71.44C44.77 73.99 48.19 72.86 51.18 73.93C53 74.57 54.46 76.07 56.35 76.46C58.39 76.89 60.48 75.93 62.56 76.02C64.22 76.09 65.89 76.83 67.52 76.49C68.84 76.21 69.92 75.26 71.11 74.6C73.77 73.11 77.1 73.04 79.62 71.3C80.76 70.53 81.67 69.44 82.85 68.74C83.13 68.57 83.44 68.43 83.76 68.33C83.83 71.4 83.72 73.6 83.35 74.35L83.36 74.34Z" fill="#231F20"/>
</g>
<g style="mix-blend-mode:multiply" opacity="0.31">
<path d="M55.4 59.59C54.41 59.27 53.41 58.95 52.37 58.97C51.33 58.99 50.25 59.44 49.72 60.33C50.89 61.75 53.53 62.31 55.37 62.45C61.41 62.91 67.56 61.69 72.97 58.97C70.92 57.63 68.34 57.13 65.94 57.63C62.4 58.37 58.83 60.7 55.4 59.59Z" fill="#231F20"/>
</g>
<path d="M50.63 36.71C50.63 36.71 50.58 36.71 50.55 36.71C50.12 36.67 49.81 36.29 49.86 35.86C50.09 33.58 51.05 31.38 52.55 29.65C52.83 29.33 53.32 29.29 53.64 29.57C53.96 29.85 54 30.34 53.72 30.66C52.43 32.15 51.6 34.05 51.4 36.02C51.36 36.42 51.02 36.72 50.63 36.72V36.71Z" fill="white"/>
<g style="mix-blend-mode:multiply" opacity="0.13">
<path d="M53.5 41.44C53.11 43.9 52.78 46.62 54.14 48.7C55.74 51.16 59.3 51.76 62.01 50.65C61.31 51.64 60.11 53.48 59.11 54.16C58.11 54.84 56.84 55.22 55.67 54.92C54.49 54.62 53.56 53.71 52.89 52.7C50.86 49.67 51.64 44.57 53.51 41.43L53.5 41.44Z" fill="#231F20"/>
</g>
<g style="mix-blend-mode:multiply" opacity="0.13">
<path d="M67.11 41.84C67 44.21 67.34 46.6 68.1 48.85C68.32 49.49 68.57 50.13 68.98 50.67C70.15 52.21 72.4 52.62 74.23 52.03C76.06 51.44 77.52 50.01 78.64 48.44C78.34 50.45 76.86 52.96 75.11 54C73.36 55.04 71.14 55.26 69.22 54.57C68.82 54.42 68.42 54.24 68.09 53.96C67.53 53.49 67.21 52.79 66.96 52.11C65.82 49.04 66.3 45.01 67.1 41.84H67.11Z" fill="#231F20"/>
</g>
<g style="mix-blend-mode:multiply" opacity="0.31">
<path d="M83.35 24.77C79.9 24.27 77.5 24.05 74 24C71.42 23.96 68.8201 26.18 66.4801 27.28C64.1401 28.36 57.61 28.4 54.97 26.93C49.71 26.77 52.76 22.51 55.97 19.27C56.03 21.09 55.47 23.16 57.45 24.3C59.35 25.4 61.75 24.45 63.75 23.54C66.79 22.17 69.92 20.87 73.24 20.55C76.56 20.22 80.12 21 82.53 23.31C82.86 23.62 83.1701 23.98 83.3001 24.42C83.3301 24.54 83.35 24.66 83.35 24.78V24.77Z" fill="#231F20"/>
</g>
<path d="M47.09 47.74C47 47.74 46.9 47.71 46.83 47.64C46.67 47.5 46.66 47.25 46.8 47.09C47.35 46.49 48.35 46.37 49.02 46.83C49.2 46.95 49.24 47.19 49.12 47.37C49 47.55 48.76 47.59 48.58 47.47C48.22 47.22 47.66 47.29 47.37 47.61C47.29 47.69 47.19 47.74 47.08 47.74H47.09Z" fill="#231F20"/>
<path d="M49.06 45.31C48.91 45.31 48.77 45.22 48.7 45.08C48.66 44.99 48.57 44.91 48.46 44.87C48.35 44.83 48.23 44.83 48.14 44.87C47.95 44.97 47.72 44.89 47.62 44.7C47.52 44.51 47.6 44.28 47.79 44.18C48.07 44.03 48.41 44.02 48.73 44.13C49.05 44.24 49.3 44.47 49.42 44.76C49.5 44.96 49.42 45.18 49.22 45.27C49.17 45.29 49.12 45.3 49.07 45.3L49.06 45.31Z" fill="#231F20"/>
<path d="M80.63 44.15C80.49 44.15 80.35 44.07 80.29 43.94C80.21 43.78 80.24 43.59 80.37 43.47C80.76 43.12 81.28 42.92 81.81 42.91C82.09 42.84 82.31 42.83 82.5 42.92C82.65 42.99 82.75 43.13 82.79 43.29C82.82 43.43 82.79 43.57 82.68 43.67C82.58 43.77 82.43 43.8 82.29 43.75C82.17 43.71 82.04 43.69 81.91 43.68C81.72 43.74 81.49 43.84 81.34 43.9C81.1 44 80.88 44.09 80.72 44.13C80.69 44.13 80.66 44.13 80.64 44.13L80.63 44.15Z" fill="#231F20"/>
<path d="M82.02 46.62C81.83 46.62 81.66 46.48 81.64 46.29C81.62 46.13 81.48 46.02 81.35 45.96C81.22 45.91 81.05 45.88 80.92 45.96C80.74 46.08 80.5 46.04 80.38 45.86C80.26 45.68 80.3 45.44 80.48 45.32C80.82 45.09 81.26 45.06 81.66 45.24C82.07 45.42 82.34 45.76 82.4 46.17C82.43 46.38 82.28 46.58 82.07 46.61C82.05 46.61 82.03 46.61 82.02 46.61V46.62Z" fill="#231F20"/>
<path d="M55.77 67.89C53.27 67.89 50.8 67.6 49.03 65.89C46.77 63.72 46.77 60.34 46.94 57.33C46.96 56.9 47.33 56.58 47.76 56.6C48.19 56.62 48.51 56.99 48.49 57.42C48.34 60.08 48.33 63.07 50.11 64.77C51.72 66.32 54.34 66.39 56.88 66.32L68.27 66.03C69.95 65.99 71.85 65.94 73.4 65.17C76.44 63.67 77.6 59.81 78.45 56.31C78.55 55.89 78.97 55.64 79.38 55.74C79.8 55.84 80.05 56.26 79.95 56.67C79.02 60.51 77.72 64.76 74.08 66.56C72.23 67.48 70.15 67.53 68.31 67.58L56.92 67.87C56.54 67.87 56.16 67.89 55.79 67.89H55.77Z" fill="#231F20"/>
<path d="M45.8 58.09C45.65 58.09 45.51 58 45.45 57.86C45.14 57.16 45.31 56.32 45.91 55.67C46.51 55.02 47.33 54.77 48.06 55.02C48.26 55.09 48.37 55.31 48.3 55.51C48.23 55.71 48.01 55.82 47.81 55.75C47.29 55.57 46.77 55.87 46.49 56.19C46.2 56.5 45.95 57.05 46.17 57.55C46.26 57.75 46.17 57.97 45.97 58.06C45.92 58.08 45.87 58.09 45.81 58.09H45.8Z" fill="#231F20"/>
<path d="M81.81 57.38C81.72 57.38 81.62 57.35 81.55 57.28C81.39 57.13 81.39 56.89 81.53 56.73C81.88 56.36 81.93 55.74 81.65 55.31C81.37 54.88 80.78 54.69 80.3 54.86C80.1 54.93 79.88 54.83 79.8 54.63C79.73 54.43 79.83 54.21 80.03 54.13C80.84 53.84 81.81 54.16 82.29 54.88C82.77 55.6 82.68 56.62 82.09 57.25C82.01 57.33 81.91 57.37 81.81 57.37V57.38Z" fill="#231F20"/>
<path d="M42.78 69.95C42.57 69.95 42.39 69.78 42.39 69.56V68.24C42.39 68.03 42.56 67.85 42.78 67.85C43 67.85 43.17 68.02 43.17 68.24V69.56C43.17 69.77 43 69.95 42.78 69.95Z" fill="#231F20"/>
<path d="M43.19 75.65C43.19 75.65 43.15 75.65 43.13 75.65C42.92 75.62 42.77 75.42 42.81 75.21L43.04 73.67C43.07 73.46 43.27 73.32 43.48 73.35C43.69 73.38 43.84 73.58 43.8 73.79L43.57 75.32C43.54 75.51 43.38 75.65 43.19 75.65Z" fill="#231F20"/>
<path d="M47.18 77.19C47 77.19 46.83 77.06 46.8 76.87C46.7 76.28 46.78 75.65 47.03 75.1C47.12 74.91 47.35 74.82 47.54 74.91C47.73 75 47.82 75.23 47.73 75.42C47.54 75.83 47.48 76.29 47.56 76.73C47.6 76.94 47.45 77.14 47.24 77.18C47.22 77.18 47.2 77.18 47.17 77.18L47.18 77.19Z" fill="#231F20"/>
<path d="M50.9 77.63C50.69 77.63 50.51 77.46 50.51 77.24V76.14C50.51 75.93 50.68 75.75 50.9 75.75C51.12 75.75 51.29 75.92 51.29 76.14V77.24C51.29 77.45 51.12 77.63 50.9 77.63Z" fill="#231F20"/>
<path d="M56.83 78.73C56.83 78.73 56.79 78.73 56.77 78.73C56.56 78.7 56.41 78.5 56.45 78.29L56.55 77.65C56.58 77.44 56.78 77.29 56.99 77.33C57.2 77.36 57.35 77.56 57.31 77.77L57.21 78.41C57.18 78.6 57.02 78.74 56.83 78.74V78.73Z" fill="#231F20"/>
<path d="M63.41 78.07C63.2 78.07 63.02 77.9 63.02 77.68V76.8C63.02 76.59 63.19 76.41 63.41 76.41C63.63 76.41 63.8 76.58 63.8 76.8V77.68C63.8 77.89 63.63 78.07 63.41 78.07Z" fill="#231F20"/>
<path d="M70.66 77.41C70.66 77.41 70.61 77.41 70.58 77.41C70.37 77.37 70.23 77.16 70.28 76.95L70.5 75.85C70.54 75.64 70.75 75.5 70.96 75.55C71.17 75.59 71.31 75.8 71.26 76.01L71.04 77.11C71 77.29 70.84 77.42 70.66 77.42V77.41Z" fill="#231F20"/>
<path d="M76.38 76.33C76.3 76.33 76.22 76.31 76.15 76.25C75.98 76.12 75.94 75.88 76.07 75.71C76.23 75.5 76.28 75.2 76.2 74.95C76.14 74.75 76.25 74.53 76.46 74.47C76.67 74.41 76.88 74.52 76.94 74.73C77.09 75.21 76.99 75.77 76.69 76.18C76.61 76.28 76.5 76.34 76.38 76.34V76.33Z" fill="#231F20"/>
<path d="M80.58 74.14C80.52 74.14 80.47 74.13 80.41 74.1C80.22 74.01 80.14 73.78 80.23 73.58C80.42 73.19 80.47 72.72 80.36 72.29C80.31 72.08 80.43 71.87 80.64 71.82C80.85 71.76 81.06 71.89 81.11 72.1C81.27 72.7 81.2 73.36 80.93 73.92C80.86 74.06 80.72 74.14 80.58 74.14Z" fill="#231F20"/>
<path d="M82.73 71.05C82.73 71.05 82.64 71.05 82.59 71.03C82.39 70.96 82.29 70.73 82.36 70.53C82.57 69.96 82.64 69.35 82.55 68.75C82.52 68.54 82.66 68.34 82.88 68.31C83.09 68.28 83.29 68.42 83.32 68.64C83.43 69.37 83.35 70.12 83.1 70.81C83.04 70.97 82.89 71.06 82.74 71.06L82.73 71.05Z" fill="#231F20"/>
<path d="M66.33 76.99C66.33 76.99 66.26 76.99 66.23 76.98C66.02 76.92 65.9 76.71 65.96 76.51L66.32 75.17C66.38 74.96 66.59 74.84 66.79 74.9C67 74.96 67.12 75.17 67.06 75.37L66.7 76.71C66.65 76.88 66.5 77 66.33 77V76.99Z" fill="#231F20"/>
<path d="M54.38 77.19C54.38 77.19 54.35 77.19 54.33 77.19C54.12 77.16 53.97 76.97 54 76.76L54.23 75.01C54.26 74.8 54.46 74.65 54.66 74.68C54.87 74.71 55.02 74.9 54.99 75.11L54.76 76.86C54.73 77.06 54.57 77.2 54.38 77.2V77.19Z" fill="#231F20"/>
<path d="M46.73 74.56C46.73 74.56 46.66 74.56 46.63 74.55C46.42 74.49 46.3 74.28 46.36 74.07L46.78 72.53C46.84 72.32 47.05 72.2 47.25 72.26C47.46 72.32 47.58 72.53 47.52 72.73L47.1 74.27C47.05 74.44 46.9 74.56 46.73 74.56Z" fill="#231F20"/>
<path d="M53.75 61.17C53.65 61.17 53.55 61.13 53.48 61.06C53.33 60.91 53.33 60.66 53.48 60.51L53.7 60.29C53.85 60.14 54.1 60.14 54.25 60.29C54.4 60.44 54.4 60.69 54.25 60.84L54.03 61.06C53.95 61.14 53.86 61.17 53.76 61.17H53.75Z" fill="#231F20"/>
<path d="M56.17 62.71C56.17 62.71 56.09 62.71 56.05 62.69C55.85 62.62 55.74 62.4 55.8 62.2L56.02 61.54C56.09 61.34 56.31 61.23 56.51 61.29C56.71 61.36 56.82 61.58 56.76 61.78L56.54 62.44C56.49 62.6 56.33 62.7 56.17 62.7V62.71Z" fill="#231F20"/>
<path d="M60.56 62.27C60.5 62.27 60.44 62.26 60.39 62.23C60.2 62.13 60.12 61.9 60.22 61.71L60.44 61.27C60.53 61.08 60.77 61 60.96 61.1C61.15 61.2 61.23 61.43 61.13 61.62L60.91 62.06C60.84 62.2 60.71 62.27 60.56 62.27Z" fill="#231F20"/>
<path d="M65.61 61.61H65.58C65.42 61.6 65.29 61.49 65.24 61.34C65.17 61.12 65.22 60.92 65.41 60.75L65.48 60.6C65.55 60.46 65.69 60.37 65.85 60.39C66.01 60.4 66.14 60.51 66.19 60.65C66.26 60.87 66.21 61.07 66.02 61.24L65.95 61.39C65.88 61.52 65.75 61.6 65.6 61.6L65.61 61.61Z" fill="#231F20"/>
<path d="M61.41 73.56C61.29 73.56 61.16 73.5 61.09 73.39C60.69 72.79 60.57 72.01 60.76 71.25C60.95 70.49 61.42 69.86 62.05 69.52C62.24 69.42 62.47 69.49 62.57 69.68C62.67 69.87 62.6 70.1 62.41 70.2C61.97 70.44 61.64 70.89 61.5 71.44C61.36 71.99 61.45 72.54 61.72 72.96C61.84 73.14 61.79 73.38 61.61 73.5C61.54 73.54 61.47 73.57 61.39 73.57L61.41 73.56Z" fill="#231F20"/>
</g>
<defs>
<clipPath id="clip0_1_259">
<rect width="132.6" height="135.7" fill="white"/>
</clipPath>
</defs>
</svg>
