<svg width="1200" height="630" viewBox="0 0 1200 630" fill="none" xmlns="http://www.w3.org/2000/svg">
  <rect width="1200" height="630" fill="white" />
  <g clip-path="url(#clip0_1_2)">
    <mask id="mask0_1_2" style="mask-type:luminance" maskUnits="userSpaceOnUse" x="1066" y="429"
      width="102" height="163">
      <path d="M1167.79 429H1066V591.16H1167.79V429Z" fill="white" />
    </mask>
    <g mask="url(#mask0_1_2)">
      <path
        d="M1067.01 590.16H1166.79C1166.79 590.16 1165.48 567.24 1154.88 550.47C1148.08 539.7 1131.07 535.73 1131.07 535.73L1103.86 535.16C1103.86 535.16 1066.44 544.81 1067.01 590.16Z"
        fill="black" />
      <path
        d="M1166.79 591.16H1067.01C1066.46 591.16 1066.02 590.72 1066.01 590.17C1065.44 544.56 1103.23 534.29 1103.61 534.2C1103.7 534.18 1103.78 534.17 1103.88 534.17L1131.09 534.74C1131.16 534.74 1131.23 534.75 1131.3 534.77C1132.01 534.94 1148.79 538.96 1155.73 549.95C1166.34 566.74 1167.78 589.88 1167.79 590.11C1167.81 590.39 1167.71 590.65 1167.52 590.85C1167.33 591.05 1167.07 591.16 1166.79 591.16ZM1068 589.16H1165.7C1165.28 584.49 1163.08 565.34 1154.03 551.01C1147.79 541.13 1132.31 537.08 1130.93 536.73L1103.97 536.17C1101.64 536.84 1067.99 547.27 1067.99 589.16H1068Z"
        fill="#231F20" />
      <path
        d="M1109.53 513.44L1103.86 535.93C1103.86 535.93 1124.65 542.36 1131.07 535.17C1131.35 524.78 1128.8 511.17 1128.8 511.17L1109.52 513.44H1109.53Z"
        fill="#FFDCC9" />
      <path
        d="M1120.17 539.56C1112.39 539.56 1104.11 537.04 1103.56 536.87C1103.05 536.71 1102.76 536.19 1102.89 535.67L1108.56 513.18C1108.66 512.78 1109 512.48 1109.41 512.43L1128.69 510.16C1129.22 510.1 1129.69 510.45 1129.79 510.97C1129.82 511.11 1132.36 524.8 1132.08 535.18C1132.08 535.42 1131.98 535.64 1131.83 535.82C1129.3 538.65 1124.83 539.55 1120.18 539.55L1120.17 539.56ZM1105.07 535.23C1109.01 536.32 1124.65 540.19 1130.09 534.76C1130.26 526.19 1128.54 515.44 1127.99 512.27L1110.33 514.35L1105.07 535.23Z"
        fill="#231F20" />
      <path
        d="M1106.12 518.16C1106.12 518.16 1121.43 530.92 1130.78 528.65C1129.93 519.86 1127.95 511.93 1127.95 511.93L1106.12 518.17V518.16Z"
        fill="#231F20" />
      <path
        d="M1087.15 587.41C1086.65 587.41 1086.22 587.03 1086.16 586.52C1085.23 578.36 1086.98 569.94 1091.07 562.81C1091.34 562.33 1091.95 562.17 1092.44 562.44C1092.92 562.72 1093.08 563.33 1092.81 563.81C1088.93 570.57 1087.27 578.55 1088.15 586.29C1088.21 586.84 1087.82 587.33 1087.27 587.4C1087.23 587.4 1087.19 587.4 1087.16 587.4L1087.15 587.41Z"
        fill="#666666" />
      <path
        d="M1140.99 586.24C1140.99 586.24 1140.92 586.24 1140.88 586.24C1140.33 586.18 1139.93 585.69 1140 585.14C1140.82 577.69 1139.6 570.15 1136.47 563.35C1136.24 562.85 1136.46 562.25 1136.96 562.02C1137.46 561.79 1138.06 562.01 1138.29 562.51C1141.57 569.65 1142.85 577.55 1141.99 585.36C1141.93 585.87 1141.5 586.25 1141 586.25L1140.99 586.24Z"
        fill="#666666" />
      <path
        d="M1126.52 581.7C1124.17 581.7 1121.82 581.47 1119.51 581.02C1119.15 580.95 1118.86 580.69 1118.75 580.33C1118.64 579.98 1118.73 579.6 1118.99 579.33L1121.34 576.93L1113.38 578.82C1111.61 579.24 1110.99 578.36 1110.81 577.96C1110.5 577.29 1110.67 576.54 1111.31 575.74C1112.53 574.23 1113.82 572.75 1115.16 571.32C1110.62 572.3 1106.26 574.13 1102.4 576.7C1101.94 577.01 1101.32 576.88 1101.01 576.42C1100.7 575.96 1100.83 575.34 1101.29 575.03C1106.25 571.73 1111.99 569.58 1117.9 568.81C1118.33 568.75 1118.74 568.98 1118.93 569.36C1119.12 569.75 1119.04 570.21 1118.73 570.51C1116.71 572.5 1114.77 574.63 1112.97 576.84L1124.24 574.16C1124.68 574.06 1125.12 574.25 1125.34 574.64C1125.56 575.03 1125.5 575.51 1125.18 575.83L1121.75 579.33C1124.36 579.7 1127 579.76 1129.63 579.52C1130.19 579.47 1130.67 579.88 1130.72 580.43C1130.77 580.98 1130.36 581.47 1129.81 581.52C1128.71 581.62 1127.61 581.67 1126.51 581.67L1126.52 581.7Z"
        fill="#666666" />
      <path
        d="M1094.22 483.58C1094.22 483.58 1085.91 477.53 1084.39 483.58C1082.87 489.63 1094.22 487.36 1094.22 487.36V483.58Z"
        fill="#FFDCC9" />
      <path
        d="M1089.94 488.78C1087.82 488.78 1085.48 488.43 1084.22 487.1C1083.6 486.44 1082.95 485.26 1083.43 483.34C1083.94 481.3 1085.12 480.49 1086.03 480.16C1089.4 478.94 1094.27 482.38 1094.82 482.78C1095.08 482.97 1095.23 483.27 1095.23 483.59V487.37C1095.23 487.85 1094.89 488.26 1094.43 488.35C1094.04 488.43 1092.1 488.79 1089.95 488.79L1089.94 488.78ZM1087.61 481.89C1087.28 481.89 1086.98 481.93 1086.7 482.03C1086.04 482.27 1085.6 482.86 1085.36 483.82C1085.08 484.94 1085.4 485.44 1085.66 485.72C1086.88 487 1090.65 486.92 1093.22 486.52V484.11C1091.97 483.29 1089.45 481.9 1087.61 481.9V481.89Z"
        fill="#231F20" />
      <path
        d="M1141.46 482.44C1141.46 482.44 1150.38 477.86 1150.91 481.31C1151.67 486.22 1141.84 486.22 1141.84 486.22L1141.46 482.44Z"
        fill="#FFDCC9" />
      <path
        d="M1141.84 487.22C1141.33 487.22 1140.9 486.83 1140.84 486.32L1140.46 482.54C1140.42 482.13 1140.63 481.74 1141 481.55C1142.16 480.96 1148.06 478.06 1150.63 479.37C1151.33 479.73 1151.77 480.34 1151.89 481.15C1152.08 482.36 1151.77 483.47 1150.99 484.37C1148.62 487.14 1142.52 487.22 1141.83 487.22H1141.84ZM1142.53 483.03L1142.75 485.19C1144.75 485.07 1148.21 484.57 1149.49 483.07C1149.89 482.61 1150.03 482.1 1149.93 481.46C1149.9 481.26 1149.83 481.2 1149.73 481.16C1148.61 480.59 1144.99 481.86 1142.53 483.04V483.03Z"
        fill="#231F20" />
      <path
        d="M1143.73 511.92C1139.95 519.48 1091.95 522.88 1088.93 513.05C1088.39 511.3 1088.42 508.36 1088.84 504.68C1090.8 487.77 1101.19 455.21 1103.67 449.94C1106.69 443.51 1119.17 443.51 1119.17 443.51C1130.13 442.75 1138.85 440.84 1142.5 457.49C1145.17 469.67 1144.83 492.24 1144.26 504.15C1144.07 508.12 1144.21 510.96 1143.73 511.92Z"
        fill="#FFDCC9" />
      <path
        d="M1110.85 520.1C1108.36 520.1 1106 520.01 1103.86 519.83C1097.36 519.29 1089.32 517.73 1087.97 513.34C1087.42 511.54 1087.37 508.67 1087.84 504.56C1089.77 487.87 1100.07 455.23 1102.76 449.51C1106.01 442.59 1118.63 442.51 1119.16 442.51C1119.83 442.46 1120.56 442.4 1121.28 442.35C1131.26 441.57 1139.88 440.91 1143.47 457.28C1146.62 471.64 1145.5 498.88 1145.25 504.2C1145.19 505.43 1145.16 506.56 1145.14 507.55C1145.08 510.02 1145.05 511.51 1144.62 512.37C1142.1 517.4 1124.64 520.1 1110.85 520.1ZM1127.27 444.04C1125.45 444.04 1123.51 444.19 1121.44 444.35C1120.72 444.41 1119.98 444.46 1119.23 444.52C1119.04 444.52 1107.28 444.6 1104.57 450.38C1102.31 455.19 1091.83 487.56 1089.83 504.81C1089.4 508.58 1089.42 511.26 1089.88 512.77C1090.66 515.32 1095.82 517.17 1104.02 517.85C1119.68 519.15 1140.72 515.7 1142.83 511.49C1143.06 511.03 1143.1 509.32 1143.14 507.52C1143.16 506.51 1143.19 505.37 1143.25 504.12C1143.5 498.85 1144.61 471.84 1141.52 457.73C1138.98 446.16 1134.05 444.05 1127.27 444.05V444.04Z"
        fill="#231F20" />
      <path
        d="M1143.88 447.93C1143.83 447.92 1143.77 447.91 1143.72 447.91C1139.27 447.26 1136.17 446.98 1131.64 446.91C1128.31 446.86 1124.95 449.73 1121.93 451.14C1118.91 452.54 1110.47 452.58 1107.07 450.69C1100.28 450.48 1104.21 444.98 1108.36 440.8C1109.85 439.3 1111.36 437.97 1112.42 437.12C1117.04 433.4 1123.24 431.31 1128.98 430.07C1129.49 429.96 1130.14 429.91 1130.44 430.34C1130.68 430.69 1130.55 431.17 1130.39 431.56C1129.67 433.32 1128.48 434.87 1126.98 436.02C1133.18 434.44 1140.18 433.66 1145.62 437.03C1143.57 438.76 1141.09 439.99 1138.47 440.57C1141.02 442.33 1142.96 444.97 1143.88 447.93Z"
        fill="#7D654D" />
      <path
        d="M1115.19 453.17C1112.06 453.17 1108.79 452.7 1106.8 451.69C1104.54 451.58 1103.12 450.85 1102.6 449.54C1101.77 447.45 1103.42 444.37 1107.65 440.11C1108.98 438.78 1110.53 437.37 1111.8 436.35C1115.83 433.1 1121.54 430.66 1128.77 429.1C1130.22 428.79 1130.93 429.29 1131.26 429.78C1131.65 430.35 1131.67 431.08 1131.31 431.95C1130.97 432.79 1130.53 433.59 1130 434.32C1134.98 433.36 1141.09 433.06 1146.14 436.19C1146.41 436.36 1146.59 436.65 1146.61 436.97C1146.63 437.29 1146.5 437.6 1146.26 437.81C1144.59 439.22 1142.67 440.31 1140.61 441.02C1142.57 442.81 1144.04 445.11 1144.83 447.65C1144.93 447.99 1144.85 448.35 1144.62 448.61C1144.39 448.87 1144.03 448.99 1143.69 448.93L1143.88 447.95L1143.66 448.93C1138.97 448.25 1135.95 448 1131.62 447.93C1129.6 447.88 1127.38 449.2 1125.26 450.46C1124.3 451.03 1123.31 451.62 1122.35 452.06C1120.78 452.79 1118.04 453.18 1115.19 453.18V453.17ZM1129.53 431C1129.45 431 1129.34 431.02 1129.19 431.05C1122.27 432.55 1116.84 434.85 1113.05 437.9C1111.83 438.87 1110.35 440.22 1109.07 441.51C1105.12 445.49 1104.1 447.88 1104.46 448.79C1104.67 449.32 1105.63 449.65 1107.1 449.69C1107.26 449.69 1107.42 449.74 1107.56 449.82C1110.63 451.52 1118.73 451.52 1121.51 450.24C1122.38 449.84 1123.28 449.3 1124.24 448.73C1126.6 447.33 1129.06 445.89 1131.65 445.92C1135.58 445.98 1138.45 446.19 1142.34 446.72C1141.37 444.59 1139.83 442.74 1137.9 441.41C1137.57 441.18 1137.41 440.79 1137.49 440.4C1137.57 440.01 1137.87 439.7 1138.26 439.62C1140.24 439.18 1142.13 438.35 1143.8 437.2C1139.71 435.25 1134.39 435.2 1127.23 437.02C1126.77 437.14 1126.29 436.92 1126.08 436.49C1125.87 436.06 1125.99 435.55 1126.37 435.26C1127.74 434.21 1128.81 432.81 1129.46 431.22C1129.49 431.15 1129.51 431.08 1129.53 431.03V431Z"
        fill="#231F20" />
      <path
        d="M1111.8 448.21C1111.66 448.21 1111.51 448.18 1111.37 448.11C1110.87 447.87 1110.66 447.28 1110.9 446.78C1112.57 443.27 1116.41 440.88 1120.33 440.98C1120.88 440.99 1121.32 441.45 1121.3 442C1121.29 442.55 1120.83 442.99 1120.27 442.97C1117.13 442.88 1114.03 444.81 1112.7 447.63C1112.53 447.99 1112.17 448.2 1111.8 448.2V448.21Z"
        fill="#231F20" />
      <path
        d="M1120.16 447.05C1119.93 447.05 1119.7 446.97 1119.52 446.82C1119.1 446.46 1119.04 445.83 1119.4 445.41C1122.12 442.18 1126.82 440.85 1130.82 442.18C1131.34 442.35 1131.63 442.92 1131.45 443.44C1131.28 443.96 1130.71 444.25 1130.19 444.07C1126.99 443.01 1123.1 444.11 1120.93 446.69C1120.73 446.92 1120.45 447.05 1120.16 447.05Z"
        fill="#231F20" />
      <path
        d="M1103.28 447.16C1103.28 447.16 1103.22 447.16 1103.2 447.16C1102.65 447.11 1102.24 446.63 1102.28 446.08C1102.44 444.15 1102.33 442.21 1101.95 440.31C1101.84 439.77 1102.19 439.24 1102.74 439.13C1103.29 439.03 1103.81 439.37 1103.92 439.92C1104.34 442 1104.46 444.13 1104.28 446.25C1104.24 446.77 1103.8 447.17 1103.28 447.17V447.16Z"
        fill="#231F20" />
      <path
        d="M1105.25 444.15C1105.19 444.15 1105.14 444.15 1105.08 444.14C1104.54 444.05 1104.17 443.53 1104.26 442.98L1105.51 435.75C1105.6 435.21 1106.12 434.84 1106.67 434.94C1107.21 435.03 1107.58 435.55 1107.49 436.1L1106.24 443.33C1106.16 443.82 1105.73 444.16 1105.26 444.16L1105.25 444.15Z"
        fill="#231F20" />
      <path
        d="M1120.11 473.09C1120.11 479.35 1114.51 487.26 1110.05 487.26C1105.59 487.26 1101.97 482.18 1101.97 475.92C1101.97 469.66 1109.13 464.01 1113.59 464.01C1118.05 464.01 1120.11 466.82 1120.11 473.08V473.09Z"
        fill="white" />
      <path
        d="M1110.05 488.26C1105.04 488.26 1100.97 482.72 1100.97 475.92C1100.97 469.12 1108.72 463.01 1113.59 463.01C1118.46 463.01 1121.11 466.3 1121.11 473.08C1121.11 479.86 1115.01 488.25 1110.05 488.25V488.26ZM1113.59 465.02C1109.59 465.02 1102.97 470.3 1102.97 475.93C1102.97 481.56 1106.15 486.27 1110.05 486.27C1113.63 486.27 1119.11 479.2 1119.11 473.1C1119.11 465.99 1116.32 465.03 1113.59 465.03V465.02Z"
        fill="#231F20" />
      <path
        d="M1122.74 469.63C1119.97 475.25 1121.5 484.82 1125.5 486.79C1129.5 488.76 1134.99 485.81 1137.76 480.19C1140.53 474.57 1136.6 466.35 1132.6 464.37C1128.6 462.39 1125.51 464.01 1122.74 469.63Z"
        fill="white" />
      <path
        d="M1128.15 488.39C1127.08 488.39 1126.03 488.16 1125.06 487.68C1122.86 486.6 1121.23 483.7 1120.59 479.73C1119.98 475.94 1120.45 472 1121.84 469.18C1123.33 466.16 1124.93 464.22 1126.73 463.26C1128.61 462.26 1130.73 462.33 1133.03 463.46C1135.25 464.56 1137.41 467.27 1138.64 470.54C1140.01 474.16 1140.01 477.83 1138.64 480.61C1136.28 485.39 1132.03 488.37 1128.14 488.37L1128.15 488.39ZM1129.54 464.56C1128.88 464.56 1128.27 464.72 1127.67 465.03C1126.25 465.78 1124.93 467.43 1123.63 470.06C1122.42 472.52 1122.02 476.02 1122.56 479.41C1123.08 482.63 1124.37 485.11 1125.94 485.89C1129.44 487.61 1134.34 484.86 1136.86 479.74C1137.98 477.46 1137.95 474.37 1136.78 471.26C1135.73 468.48 1133.91 466.13 1132.15 465.26C1131.19 464.79 1130.34 464.55 1129.54 464.55V464.56Z"
        fill="#231F20" />
      <path
        d="M1111.77 493.94C1110.87 493.94 1109.96 493.89 1109.07 493.77C1108.19 493.66 1107.05 493.25 1106.47 492.43C1106.14 491.96 1106.02 491.41 1106.15 490.85C1106.4 489.74 1107.45 489.26 1107.9 489.05C1111.17 487.54 1114.8 486.7 1118.4 486.61C1118.94 486.57 1119.41 487.03 1119.42 487.59C1119.43 488.15 1119 488.6 1118.44 488.61C1115.11 488.69 1111.75 489.47 1108.73 490.86C1108.16 491.12 1108.1 491.26 1108.09 491.28C1108.14 491.39 1108.63 491.69 1109.31 491.78C1114.06 492.37 1119.08 491.21 1123.09 488.59C1123.55 488.29 1124.17 488.42 1124.47 488.88C1124.77 489.34 1124.64 489.96 1124.18 490.26C1120.54 492.64 1116.13 493.93 1111.76 493.93L1111.77 493.94Z"
        fill="#231F20" />
      <path
        d="M1106.48 463.02C1106.33 463.02 1106.18 462.99 1106.04 462.92C1105.54 462.68 1105.34 462.08 1105.59 461.58C1106.93 458.87 1109.29 456.63 1112.07 455.45C1112.58 455.23 1113.16 455.47 1113.38 455.98C1113.6 456.49 1113.36 457.08 1112.85 457.29C1110.5 458.29 1108.51 460.18 1107.38 462.47C1107.21 462.82 1106.85 463.03 1106.48 463.03V463.02Z"
        fill="#231F20" />
      <path
        d="M1132.21 461.44C1131.99 461.44 1131.77 461.37 1131.59 461.22C1130.02 459.97 1128.06 459.29 1126.06 459.28C1125.51 459.28 1125.06 458.83 1125.06 458.28C1125.06 457.73 1125.51 457.28 1126.06 457.28C1128.51 457.28 1130.91 458.13 1132.83 459.65C1133.26 459.99 1133.33 460.62 1132.99 461.05C1132.79 461.3 1132.5 461.43 1132.21 461.43V461.44Z"
        fill="#231F20" />
      <g style="mix-blend-mode:multiply" opacity="0.31">
        <path
          d="M1143.73 511.92C1139.95 519.48 1091.95 522.88 1088.93 513.05C1088.39 511.3 1088.42 508.36 1088.84 504.68C1089.28 505.95 1089.82 507.17 1090.77 508.17C1093.91 511.46 1098.32 510 1102.19 511.38C1104.54 512.21 1106.43 514.15 1108.87 514.65C1111.51 515.2 1114.2 513.97 1116.89 514.08C1119.04 514.17 1121.19 515.13 1123.3 514.69C1125.01 514.33 1126.4 513.1 1127.93 512.25C1131.37 510.33 1135.67 510.23 1138.92 507.99C1140.39 506.99 1141.57 505.59 1143.09 504.68C1143.45 504.46 1143.85 504.28 1144.26 504.15C1144.35 508.12 1144.21 510.96 1143.73 511.92Z"
          fill="#231F20" />
      </g>
      <g style="mix-blend-mode:multiply" opacity="0.31">
        <path
          d="M1107.62 492.88C1106.35 492.47 1105.05 492.05 1103.71 492.08C1102.37 492.11 1100.97 492.68 1100.29 493.84C1101.8 495.68 1105.22 496.4 1107.59 496.58C1115.39 497.17 1123.33 495.6 1130.32 492.09C1127.68 490.36 1124.34 489.72 1121.24 490.36C1116.67 491.31 1112.06 494.33 1107.63 492.89L1107.62 492.88Z"
          fill="#231F20" />
      </g>
      <path
        d="M1101.46 463.32C1101.46 463.32 1101.39 463.32 1101.36 463.32C1100.81 463.26 1100.41 462.77 1100.47 462.22C1100.77 459.28 1102.01 456.43 1103.95 454.2C1104.31 453.78 1104.94 453.74 1105.36 454.1C1105.78 454.46 1105.82 455.09 1105.46 455.51C1103.79 457.44 1102.73 459.89 1102.46 462.43C1102.41 462.94 1101.97 463.33 1101.47 463.33L1101.46 463.32Z"
        fill="white" />
      <g style="mix-blend-mode:multiply" opacity="0.13">
        <path
          d="M1105.17 469.43C1104.67 472.61 1104.24 476.12 1105.99 478.81C1108.06 481.98 1112.65 482.76 1116.15 481.32C1115.25 482.6 1113.7 484.97 1112.41 485.86C1111.12 486.75 1109.48 487.23 1107.96 486.85C1106.44 486.47 1105.24 485.29 1104.36 483.98C1101.73 480.06 1102.74 473.48 1105.16 469.43H1105.17Z"
          fill="#231F20" />
      </g>
      <g style="mix-blend-mode:multiply" opacity="0.13">
        <path
          d="M1122.75 469.96C1122.61 473.02 1123.05 476.11 1124.03 479.02C1124.31 479.85 1124.64 480.67 1125.17 481.37C1126.68 483.35 1129.58 483.89 1131.95 483.12C1134.32 482.35 1136.2 480.51 1137.65 478.48C1137.26 481.08 1135.35 484.31 1133.09 485.66C1130.83 487.01 1127.96 487.29 1125.49 486.4C1124.97 486.21 1124.46 485.97 1124.03 485.62C1123.31 485.01 1122.9 484.11 1122.57 483.23C1121.1 479.27 1121.71 474.06 1122.75 469.96Z"
          fill="#231F20" />
      </g>
      <g style="mix-blend-mode:multiply" opacity="0.31">
        <path
          d="M1143.72 447.91C1139.27 447.26 1136.17 446.98 1131.64 446.91C1128.31 446.86 1124.95 449.73 1121.93 451.14C1118.91 452.54 1110.47 452.58 1107.07 450.69C1100.28 450.48 1104.21 444.98 1108.36 440.8C1108.44 443.15 1107.71 445.82 1110.27 447.3C1112.73 448.72 1115.82 447.5 1118.41 446.32C1122.33 444.55 1126.38 442.87 1130.66 442.46C1134.95 442.04 1139.55 443.04 1142.66 446.02C1143.08 446.42 1143.49 446.88 1143.65 447.45C1143.69 447.6 1143.72 447.76 1143.72 447.91Z"
          fill="#231F20" />
      </g>
      <path
        d="M1096.89 477.58C1096.77 477.58 1096.65 477.54 1096.55 477.45C1096.35 477.26 1096.33 476.95 1096.52 476.74C1097.23 475.96 1098.52 475.81 1099.39 476.4C1099.62 476.56 1099.68 476.87 1099.52 477.09C1099.36 477.31 1099.05 477.38 1098.83 477.22C1098.36 476.9 1097.65 476.99 1097.26 477.4C1097.16 477.51 1097.03 477.56 1096.89 477.56V477.58Z"
        fill="#231F20" />
      <path
        d="M1099.44 474.43C1099.25 474.43 1099.06 474.32 1098.98 474.13C1098.93 474.01 1098.81 473.91 1098.66 473.86C1098.52 473.81 1098.36 473.81 1098.24 473.87C1098 474 1097.69 473.9 1097.57 473.65C1097.44 473.4 1097.54 473.1 1097.79 472.98C1098.15 472.79 1098.59 472.77 1099 472.92C1099.41 473.07 1099.74 473.36 1099.9 473.74C1100.01 473.99 1099.9 474.29 1099.64 474.4C1099.58 474.43 1099.51 474.44 1099.44 474.44V474.43Z"
        fill="#231F20" />
      <path
        d="M1140.2 472.93C1140.02 472.93 1139.84 472.83 1139.76 472.66C1139.66 472.46 1139.7 472.21 1139.87 472.06C1140.38 471.6 1141.05 471.35 1141.72 471.34C1142.08 471.24 1142.37 471.23 1142.61 471.36C1142.8 471.46 1142.94 471.63 1142.99 471.84C1143.03 472.02 1142.98 472.2 1142.84 472.33C1142.71 472.45 1142.52 472.49 1142.34 472.44C1142.18 472.39 1142.02 472.36 1141.85 472.35C1141.61 472.43 1141.31 472.56 1141.11 472.64C1140.79 472.77 1140.52 472.89 1140.31 472.93C1140.27 472.93 1140.24 472.94 1140.2 472.94V472.93Z"
        fill="#231F20" />
      <path
        d="M1142 476.13C1141.75 476.13 1141.54 475.95 1141.51 475.7C1141.48 475.5 1141.3 475.35 1141.14 475.28C1140.98 475.21 1140.75 475.18 1140.58 475.29C1140.35 475.45 1140.04 475.39 1139.88 475.16C1139.72 474.93 1139.78 474.62 1140.01 474.46C1140.44 474.16 1141.01 474.13 1141.54 474.36C1142.07 474.59 1142.42 475.04 1142.5 475.56C1142.54 475.83 1142.35 476.09 1142.08 476.13C1142.06 476.13 1142.03 476.13 1142.01 476.13H1142Z"
        fill="#231F20" />
      <path
        d="M1091.32 506.25C1091.04 506.25 1090.82 506.03 1090.82 505.75V504.05C1090.82 503.77 1091.04 503.55 1091.32 503.55C1091.6 503.55 1091.82 503.77 1091.82 504.05V505.75C1091.82 506.03 1091.6 506.25 1091.32 506.25Z"
        fill="#231F20" />
      <path
        d="M1091.86 513.62C1091.86 513.62 1091.81 513.62 1091.78 513.62C1091.51 513.58 1091.32 513.32 1091.36 513.05L1091.66 511.07C1091.7 510.8 1091.96 510.61 1092.23 510.65C1092.5 510.69 1092.69 510.95 1092.65 511.22L1092.35 513.2C1092.31 513.45 1092.1 513.62 1091.86 513.62Z"
        fill="#231F20" />
      <path
        d="M1097.01 515.61C1096.77 515.61 1096.56 515.44 1096.52 515.19C1096.39 514.42 1096.5 513.61 1096.82 512.91C1096.94 512.66 1097.23 512.55 1097.48 512.67C1097.73 512.79 1097.84 513.08 1097.72 513.33C1097.48 513.85 1097.4 514.45 1097.5 515.02C1097.55 515.29 1097.36 515.55 1097.09 515.6C1097.06 515.6 1097.03 515.6 1097 515.6L1097.01 515.61Z"
        fill="#231F20" />
      <path
        d="M1101.81 516.17C1101.53 516.17 1101.31 515.95 1101.31 515.67V514.25C1101.31 513.97 1101.53 513.75 1101.81 513.75C1102.09 513.75 1102.31 513.97 1102.31 514.25V515.67C1102.31 515.95 1102.09 516.17 1101.81 516.17Z"
        fill="#231F20" />
      <path
        d="M1109.48 517.59C1109.48 517.59 1109.43 517.59 1109.41 517.59C1109.14 517.55 1108.95 517.3 1108.99 517.02L1109.11 516.19C1109.15 515.92 1109.41 515.73 1109.68 515.77C1109.95 515.81 1110.14 516.06 1110.1 516.34L1109.98 517.17C1109.94 517.42 1109.73 517.6 1109.49 517.6L1109.48 517.59Z"
        fill="#231F20" />
      <path
        d="M1117.97 516.74C1117.69 516.74 1117.47 516.52 1117.47 516.24V515.11C1117.47 514.83 1117.69 514.61 1117.97 514.61C1118.25 514.61 1118.47 514.83 1118.47 515.11V516.24C1118.47 516.52 1118.25 516.74 1117.97 516.74Z"
        fill="#231F20" />
      <path
        d="M1127.33 515.89C1127.33 515.89 1127.26 515.89 1127.23 515.89C1126.96 515.84 1126.78 515.57 1126.84 515.3L1127.12 513.88C1127.17 513.61 1127.43 513.43 1127.71 513.49C1127.98 513.54 1128.16 513.81 1128.1 514.08L1127.82 515.5C1127.77 515.74 1127.56 515.9 1127.33 515.9V515.89Z"
        fill="#231F20" />
      <path
        d="M1134.72 514.49C1134.62 514.49 1134.51 514.46 1134.42 514.39C1134.2 514.23 1134.15 513.91 1134.32 513.69C1134.53 513.41 1134.59 513.04 1134.49 512.71C1134.41 512.45 1134.56 512.17 1134.82 512.09C1135.09 512.01 1135.36 512.16 1135.44 512.42C1135.63 513.05 1135.51 513.76 1135.12 514.29C1135.02 514.42 1134.87 514.49 1134.72 514.49Z"
        fill="#231F20" />
      <path
        d="M1140.14 511.67C1140.07 511.67 1139.99 511.65 1139.92 511.62C1139.67 511.5 1139.57 511.2 1139.69 510.95C1139.94 510.44 1139.99 509.83 1139.85 509.29C1139.78 509.02 1139.94 508.75 1140.21 508.68C1140.48 508.61 1140.75 508.77 1140.82 509.04C1141.02 509.81 1140.94 510.67 1140.59 511.39C1140.5 511.57 1140.32 511.67 1140.14 511.67Z"
        fill="#231F20" />
      <path
        d="M1142.92 507.67C1142.86 507.67 1142.8 507.66 1142.75 507.64C1142.49 507.54 1142.36 507.26 1142.46 507C1142.73 506.27 1142.82 505.47 1142.7 504.7C1142.66 504.43 1142.85 504.17 1143.12 504.13C1143.39 504.09 1143.65 504.28 1143.69 504.55C1143.83 505.49 1143.73 506.46 1143.4 507.35C1143.32 507.55 1143.13 507.68 1142.93 507.68L1142.92 507.67Z"
        fill="#231F20" />
      <path
        d="M1121.73 515.35C1121.73 515.35 1121.64 515.35 1121.6 515.33C1121.33 515.26 1121.18 514.98 1121.25 514.72L1121.72 512.99C1121.79 512.72 1122.07 512.57 1122.33 512.64C1122.6 512.71 1122.75 512.99 1122.68 513.25L1122.21 514.98C1122.15 515.2 1121.95 515.35 1121.73 515.35Z"
        fill="#231F20" />
      <path
        d="M1106.31 515.6C1106.31 515.6 1106.27 515.6 1106.24 515.6C1105.97 515.56 1105.77 515.31 1105.81 515.04L1106.11 512.77C1106.15 512.5 1106.4 512.3 1106.67 512.34C1106.94 512.38 1107.14 512.63 1107.1 512.9L1106.8 515.17C1106.77 515.42 1106.55 515.61 1106.3 515.61L1106.31 515.6Z"
        fill="#231F20" />
      <path
        d="M1096.42 512.2C1096.42 512.2 1096.33 512.2 1096.29 512.18C1096.02 512.11 1095.87 511.83 1095.94 511.57L1096.48 509.58C1096.55 509.31 1096.83 509.15 1097.09 509.23C1097.36 509.3 1097.51 509.58 1097.44 509.84L1096.9 511.83C1096.84 512.05 1096.64 512.2 1096.42 512.2Z"
        fill="#231F20" />
      <path
        d="M1105.5 494.91C1105.37 494.91 1105.24 494.86 1105.15 494.76C1104.96 494.56 1104.96 494.25 1105.15 494.05L1105.43 493.77C1105.63 493.58 1105.94 493.58 1106.14 493.77C1106.33 493.97 1106.33 494.28 1106.14 494.48L1105.86 494.76C1105.76 494.86 1105.64 494.91 1105.51 494.91H1105.5Z"
        fill="#231F20" />
      <path
        d="M1108.62 496.9C1108.57 496.9 1108.51 496.9 1108.46 496.87C1108.2 496.78 1108.06 496.5 1108.14 496.24L1108.42 495.39C1108.51 495.13 1108.79 494.99 1109.05 495.07C1109.31 495.16 1109.45 495.44 1109.37 495.7L1109.09 496.55C1109.02 496.76 1108.82 496.89 1108.62 496.89V496.9Z"
        fill="#231F20" />
      <path
        d="M1114.29 496.33C1114.21 496.33 1114.14 496.31 1114.07 496.28C1113.82 496.16 1113.72 495.86 1113.84 495.61L1114.12 495.04C1114.24 494.79 1114.55 494.69 1114.79 494.82C1115.04 494.94 1115.14 495.24 1115.01 495.49L1114.73 496.05C1114.64 496.23 1114.47 496.33 1114.28 496.33H1114.29Z"
        fill="#231F20" />
      <path
        d="M1120.81 495.48H1120.77C1120.57 495.46 1120.39 495.33 1120.33 495.14C1120.24 494.86 1120.31 494.6 1120.54 494.38L1120.64 494.19C1120.73 494.01 1120.92 493.9 1121.12 493.92C1121.32 493.93 1121.5 494.07 1121.56 494.26C1121.65 494.54 1121.58 494.8 1121.34 495.02L1121.25 495.21C1121.16 495.38 1120.99 495.49 1120.8 495.49L1120.81 495.48Z"
        fill="#231F20" />
      <path
        d="M1115.39 510.91C1115.23 510.91 1115.07 510.83 1114.97 510.69C1114.45 509.92 1114.3 508.91 1114.54 507.93C1114.78 506.95 1115.39 506.13 1116.21 505.69C1116.45 505.56 1116.76 505.65 1116.89 505.89C1117.02 506.13 1116.93 506.44 1116.69 506.57C1116.12 506.88 1115.69 507.46 1115.52 508.17C1115.35 508.88 1115.45 509.59 1115.81 510.13C1115.96 510.36 1115.9 510.67 1115.67 510.82C1115.58 510.88 1115.49 510.9 1115.39 510.9V510.91Z"
        fill="#231F20" />
    </g>
    <path
      d="M1111.79 478.94C1112.88 478.94 1113.77 478.054 1113.77 476.96C1113.77 475.867 1112.88 474.98 1111.79 474.98C1110.7 474.98 1109.81 475.867 1109.81 476.96C1109.81 478.054 1110.7 478.94 1111.79 478.94Z"
      fill="black" />
    <path
      d="M1129.18 478.47C1130.27 478.47 1131.16 477.584 1131.16 476.49C1131.16 475.397 1130.27 474.51 1129.18 474.51C1128.09 474.51 1127.2 475.397 1127.2 476.49C1127.2 477.584 1128.09 478.47 1129.18 478.47Z"
      fill="black" />
    <path
      d="M1108.1 503.59C1104.88 503.59 1101.69 503.21 1099.4 501.01C1096.49 498.21 1096.48 493.84 1096.7 489.96C1096.73 489.41 1097.21 488.99 1097.75 489.02C1098.3 489.05 1098.72 489.52 1098.69 490.08C1098.5 493.52 1098.48 497.37 1100.78 499.58C1102.86 501.58 1106.24 501.66 1109.52 501.58L1124.23 501.2C1126.4 501.14 1128.86 501.08 1130.85 500.09C1134.77 498.15 1136.27 493.16 1137.37 488.64C1137.5 488.1 1138.04 487.77 1138.58 487.9C1139.12 488.03 1139.45 488.57 1139.32 489.11C1138.12 494.07 1136.44 499.55 1131.75 501.88C1129.36 503.06 1126.67 503.13 1124.29 503.19L1109.58 503.57C1109.09 503.58 1108.6 503.59 1108.11 503.59H1108.1Z"
      fill="#231F20" />
    <path
      d="M1095.23 490.94C1095.04 490.94 1094.86 490.83 1094.77 490.64C1094.37 489.73 1094.59 488.65 1095.36 487.81C1096.13 486.97 1097.19 486.65 1098.13 486.97C1098.39 487.06 1098.53 487.34 1098.44 487.61C1098.35 487.87 1098.07 488.01 1097.81 487.92C1097.14 487.69 1096.47 488.08 1096.1 488.49C1095.73 488.89 1095.4 489.6 1095.68 490.24C1095.79 490.49 1095.68 490.79 1095.43 490.9C1095.36 490.93 1095.3 490.94 1095.23 490.94Z"
      fill="#231F20" />
    <path
      d="M1141.73 490.02C1141.61 490.02 1141.49 489.98 1141.39 489.89C1141.19 489.7 1141.18 489.39 1141.36 489.18C1141.81 488.7 1141.87 487.9 1141.51 487.35C1141.15 486.8 1140.38 486.55 1139.77 486.77C1139.51 486.86 1139.22 486.73 1139.13 486.47C1139.04 486.21 1139.17 485.92 1139.43 485.83C1140.48 485.45 1141.73 485.87 1142.35 486.8C1142.96 487.73 1142.86 489.05 1142.1 489.86C1142 489.97 1141.87 490.02 1141.73 490.02Z"
      fill="#231F20" />
  </g>
  <path
    d="M866.528 549.424C873.152 549.424 876.272 553.888 876.272 560.368V574H872.672V569.632C870.944 572.704 867.92 574.576 863.984 574.576C859.136 574.576 855.728 571.744 855.728 567.472C855.728 562.672 859.952 559.696 866.528 559.696C868.592 559.696 870.752 559.984 872.624 560.512V560.32C872.624 556.048 871.136 552.784 866.48 552.784C862.88 552.784 860.528 554.704 861.392 558.304H857.504C856.208 553.216 860.48 549.424 866.528 549.424ZM864.368 571.312C868.736 571.312 872.192 568.336 872.624 563.728C870.896 563.2 868.784 562.864 866.816 562.864C862.208 562.864 859.616 564.736 859.616 567.616C859.616 569.968 861.392 571.312 864.368 571.312ZM892.186 549.424C895.642 549.424 897.802 552.112 897.802 555.472C897.802 556.912 897.418 558.208 896.89 559.312H893.002C893.674 558.304 893.914 557.248 893.914 556.288C893.914 554.224 892.714 552.928 890.89 552.928C887.818 552.928 885.754 556.672 885.754 562.336V574H882.105V550H885.754V554.176C887.146 551.152 889.354 549.424 892.186 549.424ZM914.692 549.424C922.324 549.424 922.324 556.912 922.324 560.896V574H918.676V561.088C918.676 557.728 918.676 552.928 913.588 552.928C909.076 552.928 906.004 556.72 906.004 562.432V574H902.355V550H906.004V554.704C907.78 551.392 910.9 549.424 914.692 549.424ZM945.512 566.752H949.496C948.104 571.6 944.12 574.576 938.648 574.576C931.496 574.576 926.936 569.584 926.936 562C926.936 554.416 931.544 549.424 938.84 549.424C946.904 549.424 950.552 555.52 948.536 563.392H930.872C931.352 568.336 934.184 571.216 938.6 571.216C941.912 571.216 944.504 569.536 945.512 566.752ZM938.696 552.688C934.232 552.688 931.496 555.424 930.92 560.08H945.32C945.8 555.568 943.352 552.688 938.696 552.688ZM957.117 574.48C955.293 574.48 953.901 573.088 953.901 571.264C953.901 569.44 955.293 568.048 957.117 568.048C958.941 568.048 960.333 569.44 960.333 571.264C960.333 573.088 958.941 574.48 957.117 574.48ZM992.557 549.424C997.501 549.424 1000.04 552.928 1000.04 558.208V574H996.397V559.168C996.397 555.424 994.813 552.928 991.597 552.928C987.613 552.928 984.829 556.672 984.829 562.432V574H981.181V559.168C981.181 555.424 979.597 552.928 976.381 552.928C972.397 552.928 969.613 556.672 969.613 562.432V574H965.965V550H969.613V554.368C970.861 551.728 973.405 549.424 977.341 549.424C980.989 549.424 983.437 551.488 984.397 554.752C985.885 551.44 988.909 549.424 992.557 549.424ZM1023.23 566.752H1027.21C1025.82 571.6 1021.84 574.576 1016.37 574.576C1009.21 574.576 1004.65 569.584 1004.65 562C1004.65 554.416 1009.26 549.424 1016.56 549.424C1024.62 549.424 1028.27 555.52 1026.25 563.392H1008.59C1009.07 568.336 1011.9 571.216 1016.32 571.216C1019.63 571.216 1022.22 569.536 1023.23 566.752ZM1016.41 552.688C1011.95 552.688 1009.21 555.424 1008.64 560.08H1023.04C1023.52 555.568 1021.07 552.688 1016.41 552.688Z"
    fill="#444444" />
  <text fill="black" xml:space="preserve" style="white-space: pre" font-family="ES Rebond Grotesque"
    font-size="96" font-weight="bold" letter-spacing="0em">
    {{ tspans }}
  </text>
  <rect y="622" width="1200" height="8" fill="#0049FF" />
  <defs>
    <clipPath id="clip0_1_2">
      <rect width="102" height="163" fill="white" transform="translate(1066 429)" />
    </clipPath>
  </defs>
</svg>