<svg width="512" height="512" viewBox="0 0 512 512" fill="none" xmlns="http://www.w3.org/2000/svg">
<rect width="512" height="512" fill="#111111"/>
<path d="M276.274 452.746L154.43 100.882L267.245 61.8158C289.106 54.2457 308.635 52.1012 325.831 55.3823C342.987 58.5489 357.544 65.8863 369.503 77.3946C381.422 88.7884 390.396 103.19 396.425 120.6C401.502 135.261 403.429 148.448 402.206 160.159C400.943 171.756 397.402 181.962 391.582 190.775C385.823 199.44 378.706 206.779 370.231 212.792L371.421 216.228C381.848 213.259 393.135 213.583 405.281 217.202C417.489 220.671 429.003 227.652 439.823 238.143C450.644 248.635 459.207 262.986 465.513 281.198C471.741 299.181 473.623 316.615 471.16 333.503C468.757 350.24 461.333 365.446 448.885 379.121C436.398 392.68 418.221 403.593 394.354 411.857L276.274 452.746ZM306.988 391.122L374.076 367.891C396.338 360.182 410.577 349.735 416.793 336.551C423.009 323.367 423.558 309.387 418.442 294.612C414.595 283.501 408.608 274.158 400.481 266.582C392.355 259.006 382.777 254.049 371.748 251.711C360.819 249.338 349.137 250.305 336.702 254.611L267.96 278.415L306.988 391.122ZM253.622 237.009L315.896 215.445C326.325 211.833 334.908 206.296 341.645 198.832C348.482 191.334 352.929 182.61 354.987 172.662C357.106 162.564 356.202 151.846 352.275 140.506C347.238 125.96 338.552 115.307 326.216 108.547C313.88 101.787 298.486 101.602 280.034 107.991L216.557 129.972L253.622 237.009Z" fill="white"/>
<path d="M84.5 442.82H32L155.008 101.002L206.817 103.32L317.817 428.32L282.856 442.82L179.662 174.32H178L84.5 442.82ZM95.924 308.963H273.509V352.358H95.924V308.963Z" fill="white"/>
</svg>
