<svg width="1024" height="1024" viewBox="0 0 1024 1024" fill="none" xmlns="http://www.w3.org/2000/svg">
<g clip-path="url(#clip0_1_2)">
<rect width="1024" height="1024" fill="#F7F8FF"/>
<rect x="-16" y="661" width="1040" height="363" fill="white"/>
<rect x="-15.5" y="661.5" width="1039" height="362" stroke="#7788FF" stroke-opacity="0.12"/>
<path d="M308.5 560.375C292.562 559.75 280.688 559.438 273.188 559.438C265.688 559.438 258.5 559.125 252.25 559.125C245.375 559.125 238.188 559.438 230.688 559.438C223.188 559.438 212.875 559.75 199.75 560.375L205.375 545.062C232.25 472.562 249.125 436 256 436C262.25 436 277.25 470.375 301 538.812L308.5 560.375ZM417.25 754.125C461 754.125 491.312 751.625 508.5 746.625C525.688 741.625 534.438 732.875 534.438 720.375C534.438 713.5 531.625 707.25 526 701.938C520.375 696.938 512.25 692.562 501.312 688.812C485.375 684.125 472.875 669.438 463.812 644.75L462.562 641.938C412.562 513.812 378.188 427.875 359.75 383.812C341 340.062 327.875 312.25 320.062 300.375C313.812 291.938 306.938 286 299.438 282.562C291.938 279.125 281.312 277.25 268.188 277.25C253.812 277.25 243.5 279.438 237.875 283.5C232.25 287.875 228.188 297.25 226 311.938C221 344.438 201.312 403.188 166.938 487.562C159.75 504.438 154.438 517.562 151 526.312C146 538.188 139.75 554.75 131.625 575.375C104.438 644.438 85.375 681.625 74.4375 686.938C71.3125 688.5 66.625 690.688 60.0625 693.188C40.6875 700.688 31.3125 710.375 31.3125 722.25C31.3125 732.562 37.5625 740.375 50.375 745.375C62.875 750.375 81.9375 752.875 106.938 752.875C142.875 752.875 167.562 750.688 181 746C194.125 741.312 201 733.188 201 721.625C201 711 192.875 701.938 176.625 694.438C174.125 693.5 172.562 692.562 171.312 691.938C165.062 689.438 161 686.625 158.812 683.812C156.625 681 155.688 677.25 155.688 672.875C155.688 665.375 157.875 656 162.875 644.438C167.875 633.188 172.25 626.312 176.312 624.125C178.812 622.562 185.688 621.312 196.312 620.375C206.938 619.75 226 619.125 253.5 619.125C275.062 619.125 291.938 619.75 304.438 620.688C316.938 621.625 324.75 623.188 327.875 625.062C333.5 629.125 339.125 637.562 345.062 650.688C350.688 663.812 353.812 674.75 353.812 683.188C353.812 688.188 349.125 692.562 340.062 696.938C336 698.812 332.875 700.062 331 701C327.875 702.875 325.375 705.375 323.5 709.125C321.625 712.875 320.688 717.25 320.688 721.625C320.688 733.5 327.875 741.625 342.25 746.625C356.625 751.625 381.625 754.125 417.25 754.125ZM701.312 473.812V457.875C701.312 424.125 701.625 400.062 702.562 386C703.188 371.938 704.438 362.562 706.312 357.562C708.812 351.625 712.562 347.562 718.188 345.062C723.812 342.562 732.875 341.312 745.375 341.312C774.75 341.312 796.938 347.25 811.312 358.5C825.688 370.062 833.188 387.25 833.188 410.375C833.188 433.5 825.375 450.062 810.062 460.375C794.75 470.688 770.062 475.688 736 475.688C729.75 475.688 723.812 475.688 717.875 475.375C711.938 475.062 706.312 474.438 701.312 473.812ZM701.312 544.438C705.688 543.812 710.062 543.188 715.062 542.875C719.75 542.562 725.062 542.25 730.688 542.25C776.938 542.25 809.75 548.188 828.5 560.062C847.25 571.938 856.938 591.938 856.938 619.75C856.938 644.75 848.5 663.5 831.938 676.312C815.375 689.125 791.312 695.375 759.438 695.375C743.188 695.375 730.688 693.812 722.562 690.688C714.438 687.562 708.812 682.25 705.688 674.75C704.125 670.375 702.875 663.188 702.25 653.188C701.625 643.188 701.312 626.938 701.312 603.812V544.438ZM842.875 504.75C841.625 504.125 840.688 503.5 840.688 503.188C840.375 503.188 840.375 502.562 840.375 501.938C840.375 501.938 840.375 501.625 840.688 501.312C840.688 501.312 841.625 500.688 842.875 500.062C874.75 492.25 899.125 479.438 915.375 461.625C931.625 443.812 940.062 421.312 940.062 394.438C940.062 358.188 926.312 330.062 899.438 310.688C872.25 291.312 833.5 281.312 783.188 281.312C771.938 281.312 752.875 281.938 726 283.188C698.812 284.438 677.25 285.062 661 285.062C656.625 285.062 646.938 285.062 631.312 284.438C615.688 284.125 602.562 283.812 591.312 283.812C574.125 283.812 561.312 286.625 552.562 291.625C543.812 296.938 539.438 304.438 539.438 314.438C539.438 325.688 545.688 334.125 558.188 340.375C570.688 346.625 577.562 351 579.125 352.875C582.25 357.25 584.438 372.25 586.312 397.875C587.875 423.5 588.812 457.562 588.812 500.062C588.812 553.812 587.875 596.625 586.312 628.5C584.438 660.375 582.25 678.188 579.125 682.562C577.562 684.438 570.688 688.812 558.188 695.062C545.688 701.312 539.438 710.062 539.438 721C539.438 731 543.5 738.812 552.25 743.812C561 749.125 573.812 751.625 590.688 751.625C600.062 751.625 612.562 751.625 627.562 751C642.562 750.688 652.562 750.375 657.875 750.375C674.125 750.375 697.25 751.312 727.875 752.562C758.5 754.125 781 754.75 795.375 754.75C851 754.75 894.438 743.5 925.062 721C955.688 698.5 971.312 666.938 971.312 626.312C971.312 592.562 960.375 565.375 938.5 544.75C916.625 524.125 884.75 511 842.875 504.75Z" fill="black"/>
</g>
<defs>
<clipPath id="clip0_1_2">
<rect width="1024" height="1024" fill="white"/>
</clipPath>
</defs>
</svg>
