<svg width="1024" height="1024" viewBox="0 0 1024 1024" fill="none" xmlns="http://www.w3.org/2000/svg">
<rect width="1024" height="1024" fill="#3558FF"/>
<path d="M541 570.25C521.875 569.5 507.625 569.125 498.625 569.125C489.625 569.125 481 568.75 473.5 568.75C465.25 568.75 456.625 569.125 447.625 569.125C438.625 569.125 426.25 569.5 410.5 570.25L417.25 551.875C449.5 464.875 469.75 421 478 421C485.5 421 503.5 462.25 532 544.375L541 570.25ZM671.5 802.75C724 802.75 760.375 799.75 781 793.75C801.625 787.75 812.125 777.25 812.125 762.25C812.125 754 808.75 746.5 802 740.125C795.25 734.125 785.5 728.875 772.375 724.375C753.25 718.75 738.25 701.125 727.375 671.5L725.875 668.125C665.875 514.375 624.625 411.25 602.5 358.375C580 305.875 564.25 272.5 554.875 258.25C547.375 248.125 539.125 241 530.125 236.875C521.125 232.75 508.375 230.5 492.625 230.5C475.375 230.5 463 233.125 456.25 238C449.5 243.25 444.625 254.5 442 272.125C436 311.125 412.375 381.625 371.125 482.875C362.5 503.125 356.125 518.875 352 529.375C346 543.625 338.5 563.5 328.75 588.25C296.125 671.125 273.25 715.75 260.125 722.125C256.375 724 250.75 726.625 242.875 729.625C219.625 738.625 208.375 750.25 208.375 764.5C208.375 776.875 215.875 786.25 231.25 792.25C246.25 798.25 269.125 801.25 299.125 801.25C342.25 801.25 371.875 798.625 388 793C403.75 787.375 412 777.625 412 763.75C412 751 402.25 740.125 382.75 731.125C379.75 730 377.875 728.875 376.375 728.125C368.875 725.125 364 721.75 361.375 718.375C358.75 715 357.625 710.5 357.625 705.25C357.625 696.25 360.25 685 366.25 671.125C372.25 657.625 377.5 649.375 382.375 646.75C385.375 644.875 393.625 643.375 406.375 642.25C419.125 641.5 442 640.75 475 640.75C500.875 640.75 521.125 641.5 536.125 642.625C551.125 643.75 560.5 645.625 564.25 647.875C571 652.75 577.75 662.875 584.875 678.625C591.625 694.375 595.375 707.5 595.375 717.625C595.375 723.625 589.75 728.875 578.875 734.125C574 736.375 570.25 737.875 568 739C564.25 741.25 561.25 744.25 559 748.75C556.75 753.25 555.625 758.5 555.625 763.75C555.625 778 564.25 787.75 581.5 793.75C598.75 799.75 628.75 802.75 671.5 802.75Z" fill="white"/>
</svg>
