<svg width="512" height="512" viewBox="0 0 512 512" fill="none" xmlns="http://www.w3.org/2000/svg">
<path d="M276 294.5C263.25 294 253.75 293.75 247.75 293.75C241.75 293.75 236 293.5 231 293.5C225.5 293.5 219.75 293.75 213.75 293.75C207.75 293.75 199.5 294 189 294.5L193.5 282.25C215 224.25 228.5 195 234 195C239 195 251 222.5 270 277.25L276 294.5ZM363 449.5C398 449.5 422.25 447.5 436 443.5C449.75 439.5 456.75 432.5 456.75 422.5C456.75 417 454.5 412 450 407.75C445.5 403.75 439 400.25 430.25 397.25C417.5 393.5 407.5 381.75 400.25 362L399.25 359.75C359.25 257.25 331.75 188.5 317 153.25C302 118.25 291.5 96 285.25 86.5C280.25 79.75 274.75 75 268.75 72.25C262.75 69.5 254.25 68 243.75 68C232.25 68 224 69.75 219.5 73C215 76.5 211.75 84 210 95.75C206 121.75 190.25 168.75 162.75 236.25C157 249.75 152.75 260.25 150 267.25C146 276.75 141 290 134.5 306.5C112.75 361.75 97.5 391.5 88.75 395.75C86.25 397 82.5 398.75 77.25 400.75C61.75 406.75 54.25 414.5 54.25 424C54.25 432.25 59.25 438.5 69.5 442.5C79.5 446.5 94.75 448.5 114.75 448.5C143.5 448.5 163.25 446.75 174 443C184.5 439.25 190 432.75 190 423.5C190 415 183.5 407.75 170.5 401.75C168.5 401 167.25 400.25 166.25 399.75C161.25 397.75 158 395.5 156.25 393.25C154.5 391 153.75 388 153.75 384.5C153.75 378.5 155.5 371 159.5 361.75C163.5 352.75 167 347.25 170.25 345.5C172.25 344.25 177.75 343.25 186.25 342.5C194.75 342 210 341.5 232 341.5C249.25 341.5 262.75 342 272.75 342.75C282.75 343.5 289 344.75 291.5 346.25C296 349.5 300.5 356.25 305.25 366.75C309.75 377.25 312.25 386 312.25 392.75C312.25 396.75 308.5 400.25 301.25 403.75C298 405.25 295.5 406.25 294 407C291.5 408.5 289.5 410.5 288 413.5C286.5 416.5 285.75 420 285.75 423.5C285.75 433 291.5 439.5 303 443.5C314.5 447.5 334.5 449.5 363 449.5Z" fill="black"/>
</svg>
