<svg class="hero__arne noscript" role="img" aria-labelledby="arneTitle" width="102" height="163" viewBox="0 0 102 163" fill="none" xmlns="http://www.w3.org/2000/svg">
<title id="arneTitle">A comic version of a white guy with short hair, smiling.</title>
<g clip-path="url(#clip0_1_2)">
<path d="M1.01 161.16H100.79C100.79 161.16 99.48 138.24 88.88 121.47C82.08 110.7 65.07 106.73 65.07 106.73L37.86 106.16C37.86 106.16 0.440002 115.81 1.01 161.16Z" fill="black"/>
<path d="M100.79 162.16H1.01C0.46 162.16 0.0200001 161.72 0.0100001 161.17C-0.56 115.56 37.23 105.29 37.61 105.2C37.7 105.18 37.78 105.17 37.88 105.17L65.09 105.74C65.16 105.74 65.23 105.75 65.3 105.77C66.01 105.94 82.79 109.96 89.73 120.95C100.34 137.74 101.78 160.88 101.79 161.11C101.81 161.39 101.71 161.65 101.52 161.85C101.33 162.05 101.07 162.16 100.79 162.16ZM2 160.16H99.7C99.28 155.49 97.08 136.34 88.03 122.01C81.79 112.13 66.31 108.08 64.93 107.73L37.97 107.17C35.64 107.84 1.99 118.27 1.99 160.16H2Z" fill="#231F20"/>
<path d="M43.53 84.44L37.86 106.93C37.86 106.93 58.65 113.36 65.07 106.17C65.35 95.78 62.8 82.17 62.8 82.17L43.52 84.44H43.53Z" fill="#FFDCC9"/>
<path d="M54.17 110.56C46.39 110.56 38.11 108.04 37.56 107.87C37.05 107.71 36.76 107.19 36.89 106.67L42.56 84.18C42.66 83.78 43 83.48 43.41 83.43L62.69 81.16C63.22 81.1 63.69 81.45 63.79 81.97C63.82 82.11 66.36 95.8 66.08 106.18C66.08 106.42 65.98 106.64 65.83 106.82C63.3 109.65 58.83 110.55 54.18 110.55L54.17 110.56ZM39.07 106.23C43.01 107.32 58.65 111.19 64.09 105.76C64.26 97.19 62.54 86.44 61.99 83.27L44.33 85.35L39.07 106.23Z" fill="#231F20"/>
<path d="M40.12 89.16C40.12 89.16 55.43 101.92 64.78 99.65C63.93 90.86 61.95 82.93 61.95 82.93L40.12 89.17V89.16Z" fill="#231F20"/>
<path d="M21.15 158.41C20.65 158.41 20.22 158.03 20.16 157.52C19.23 149.36 20.98 140.94 25.07 133.81C25.34 133.33 25.95 133.17 26.44 133.44C26.92 133.72 27.08 134.33 26.81 134.81C22.93 141.57 21.27 149.55 22.15 157.29C22.21 157.84 21.82 158.33 21.27 158.4C21.23 158.4 21.19 158.4 21.16 158.4L21.15 158.41Z" fill="#666666"/>
<path d="M74.99 157.24C74.99 157.24 74.92 157.24 74.88 157.24C74.33 157.18 73.93 156.69 74 156.14C74.82 148.69 73.6 141.15 70.47 134.35C70.24 133.85 70.46 133.25 70.96 133.02C71.46 132.79 72.06 133.01 72.29 133.51C75.57 140.65 76.85 148.55 75.99 156.36C75.93 156.87 75.5 157.25 75 157.25L74.99 157.24Z" fill="#666666"/>
<path d="M60.52 152.7C58.17 152.7 55.82 152.47 53.51 152.02C53.15 151.95 52.86 151.69 52.75 151.33C52.64 150.98 52.73 150.6 52.99 150.33L55.34 147.93L47.38 149.82C45.61 150.24 44.99 149.36 44.81 148.96C44.5 148.29 44.67 147.54 45.31 146.74C46.53 145.23 47.82 143.75 49.16 142.32C44.62 143.3 40.26 145.13 36.4 147.7C35.94 148.01 35.32 147.88 35.01 147.42C34.7 146.96 34.83 146.34 35.29 146.03C40.25 142.73 45.99 140.58 51.9 139.81C52.33 139.75 52.74 139.98 52.93 140.36C53.12 140.75 53.04 141.21 52.73 141.51C50.71 143.5 48.77 145.63 46.97 147.84L58.24 145.16C58.68 145.06 59.12 145.25 59.34 145.64C59.56 146.03 59.5 146.51 59.18 146.83L55.75 150.33C58.36 150.7 61 150.76 63.63 150.52C64.19 150.47 64.67 150.88 64.72 151.43C64.77 151.98 64.36 152.47 63.81 152.52C62.71 152.62 61.61 152.67 60.51 152.67L60.52 152.7Z" fill="#666666"/>
<path d="M28.22 54.58C28.22 54.58 19.91 48.53 18.39 54.58C16.87 60.63 28.22 58.36 28.22 58.36V54.58Z" fill="#FFDCC9"/>
<path d="M23.94 59.78C21.82 59.78 19.48 59.43 18.22 58.1C17.6 57.44 16.95 56.26 17.43 54.34C17.94 52.3 19.12 51.49 20.03 51.16C23.4 49.94 28.27 53.38 28.82 53.78C29.08 53.97 29.23 54.27 29.23 54.59V58.37C29.23 58.85 28.89 59.26 28.43 59.35C28.04 59.43 26.1 59.79 23.95 59.79L23.94 59.78ZM21.61 52.89C21.28 52.89 20.98 52.93 20.7 53.03C20.04 53.27 19.6 53.86 19.36 54.82C19.08 55.94 19.4 56.44 19.66 56.72C20.88 58 24.65 57.92 27.22 57.52V55.11C25.97 54.29 23.45 52.9 21.61 52.9V52.89Z" fill="#231F20"/>
<path d="M75.46 53.44C75.46 53.44 84.38 48.86 84.91 52.31C85.67 57.22 75.84 57.22 75.84 57.22L75.46 53.44Z" fill="#FFDCC9"/>
<path d="M75.84 58.22C75.33 58.22 74.9 57.83 74.84 57.32L74.46 53.54C74.42 53.13 74.63 52.74 75 52.55C76.16 51.96 82.06 49.06 84.63 50.37C85.33 50.73 85.77 51.34 85.89 52.15C86.08 53.36 85.77 54.47 84.99 55.37C82.62 58.14 76.52 58.22 75.83 58.22H75.84ZM76.53 54.03L76.75 56.19C78.75 56.07 82.21 55.57 83.49 54.07C83.89 53.61 84.03 53.1 83.93 52.46C83.9 52.26 83.83 52.2 83.73 52.16C82.61 51.59 78.99 52.86 76.53 54.04V54.03Z" fill="#231F20"/>
<path d="M77.73 82.92C73.95 90.48 25.95 93.88 22.93 84.05C22.39 82.3 22.42 79.36 22.84 75.68C24.8 58.77 35.19 26.21 37.67 20.94C40.69 14.51 53.17 14.51 53.17 14.51C64.13 13.75 72.85 11.84 76.5 28.49C79.17 40.67 78.83 63.24 78.26 75.15C78.07 79.12 78.21 81.96 77.73 82.92Z" fill="#FFDCC9"/>
<path d="M44.85 91.1C42.36 91.1 40 91.01 37.86 90.83C31.36 90.29 23.32 88.73 21.97 84.34C21.42 82.54 21.37 79.67 21.84 75.56C23.77 58.87 34.07 26.23 36.76 20.51C40.01 13.59 52.63 13.51 53.16 13.51C53.83 13.46 54.56 13.4 55.28 13.35C65.26 12.57 73.88 11.91 77.47 28.28C80.62 42.64 79.5 69.88 79.25 75.2C79.19 76.43 79.16 77.56 79.14 78.55C79.08 81.02 79.05 82.51 78.62 83.37C76.1 88.4 58.64 91.1 44.85 91.1ZM61.27 15.04C59.45 15.04 57.51 15.19 55.44 15.35C54.72 15.41 53.98 15.46 53.23 15.52C53.04 15.52 41.28 15.6 38.57 21.38C36.31 26.19 25.83 58.56 23.83 75.81C23.4 79.58 23.42 82.26 23.88 83.77C24.66 86.32 29.82 88.17 38.02 88.85C53.68 90.15 74.72 86.7 76.83 82.49C77.06 82.03 77.1 80.32 77.14 78.52C77.16 77.51 77.19 76.37 77.25 75.12C77.5 69.85 78.61 42.84 75.52 28.73C72.98 17.16 68.05 15.05 61.27 15.05V15.04Z" fill="#231F20"/>
<path d="M77.88 18.93C77.83 18.92 77.77 18.91 77.72 18.91C73.27 18.26 70.17 17.98 65.64 17.91C62.31 17.86 58.95 20.73 55.93 22.14C52.91 23.54 44.47 23.58 41.07 21.69C34.28 21.48 38.21 15.98 42.36 11.8C43.85 10.3 45.36 8.97 46.42 8.12C51.04 4.4 57.24 2.31 62.98 1.07C63.49 0.959999 64.14 0.909999 64.44 1.34C64.68 1.69 64.55 2.17 64.39 2.56C63.67 4.32 62.48 5.87 60.98 7.02C67.18 5.44 74.18 4.66 79.62 8.03C77.57 9.76 75.09 10.99 72.47 11.57C75.02 13.33 76.96 15.97 77.88 18.93Z" fill="#7D654D"/>
<path d="M49.19 24.17C46.06 24.17 42.79 23.7 40.8 22.69C38.54 22.58 37.12 21.85 36.6 20.54C35.77 18.45 37.42 15.37 41.65 11.11C42.98 9.78 44.53 8.37 45.8 7.35C49.83 4.1 55.54 1.66 62.77 0.0999996C64.22 -0.21 64.93 0.29 65.26 0.78C65.65 1.35 65.67 2.08 65.31 2.95C64.97 3.79 64.53 4.59 64 5.32C68.98 4.36 75.09 4.06 80.14 7.19C80.41 7.36 80.59 7.65 80.61 7.97C80.63 8.29 80.5 8.6 80.26 8.81C78.59 10.22 76.67 11.31 74.61 12.02C76.57 13.81 78.04 16.11 78.83 18.65C78.93 18.99 78.85 19.35 78.62 19.61C78.39 19.87 78.03 19.99 77.69 19.93L77.88 18.95L77.66 19.93C72.97 19.25 69.95 19 65.62 18.93C63.6 18.88 61.38 20.2 59.26 21.46C58.3 22.03 57.31 22.62 56.35 23.06C54.78 23.79 52.04 24.18 49.19 24.18V24.17ZM63.53 2C63.45 2 63.34 2.02 63.19 2.05C56.27 3.55 50.84 5.85 47.05 8.9C45.83 9.87 44.35 11.22 43.07 12.51C39.12 16.49 38.1 18.88 38.46 19.79C38.67 20.32 39.63 20.65 41.1 20.69C41.26 20.69 41.42 20.74 41.56 20.82C44.63 22.52 52.73 22.52 55.51 21.24C56.38 20.84 57.28 20.3 58.24 19.73C60.6 18.33 63.06 16.89 65.65 16.92C69.58 16.98 72.45 17.19 76.34 17.72C75.37 15.59 73.83 13.74 71.9 12.41C71.57 12.18 71.41 11.79 71.49 11.4C71.57 11.01 71.87 10.7 72.26 10.62C74.24 10.18 76.13 9.35 77.8 8.2C73.71 6.25 68.39 6.2 61.23 8.02C60.77 8.14 60.29 7.92 60.08 7.49C59.87 7.06 59.99 6.55 60.37 6.26C61.74 5.21 62.81 3.81 63.46 2.22C63.49 2.15 63.51 2.08 63.53 2.03V2Z" fill="#231F20"/>
<path d="M45.8 19.21C45.66 19.21 45.51 19.18 45.37 19.11C44.87 18.87 44.66 18.28 44.9 17.78C46.57 14.27 50.41 11.88 54.33 11.98C54.88 11.99 55.32 12.45 55.3 13C55.29 13.55 54.83 13.99 54.27 13.97C51.13 13.88 48.03 15.81 46.7 18.63C46.53 18.99 46.17 19.2 45.8 19.2V19.21Z" fill="#231F20"/>
<path d="M54.16 18.05C53.93 18.05 53.7 17.97 53.52 17.82C53.1 17.46 53.04 16.83 53.4 16.41C56.12 13.18 60.82 11.85 64.82 13.18C65.34 13.35 65.63 13.92 65.45 14.44C65.28 14.96 64.71 15.25 64.19 15.07C60.99 14.01 57.1 15.11 54.93 17.69C54.73 17.92 54.45 18.05 54.16 18.05Z" fill="#231F20"/>
<path d="M37.28 18.16C37.28 18.16 37.22 18.16 37.2 18.16C36.65 18.11 36.24 17.63 36.28 17.08C36.44 15.15 36.33 13.21 35.95 11.31C35.84 10.77 36.19 10.24 36.74 10.13C37.29 10.03 37.81 10.37 37.92 10.92C38.34 13 38.46 15.13 38.28 17.25C38.24 17.77 37.8 18.17 37.28 18.17V18.16Z" fill="#231F20"/>
<path d="M39.25 15.15C39.19 15.15 39.14 15.15 39.08 15.14C38.54 15.05 38.17 14.53 38.26 13.98L39.51 6.75C39.6 6.21 40.12 5.84 40.67 5.94C41.21 6.03 41.58 6.55 41.49 7.1L40.24 14.33C40.16 14.82 39.73 15.16 39.26 15.16L39.25 15.15Z" fill="#231F20"/>
<path d="M54.11 44.09C54.11 50.35 48.51 58.26 44.05 58.26C39.59 58.26 35.97 53.18 35.97 46.92C35.97 40.66 43.13 35.01 47.59 35.01C52.05 35.01 54.11 37.82 54.11 44.08V44.09Z" fill="white"/>
<path d="M44.05 59.26C39.04 59.26 34.97 53.72 34.97 46.92C34.97 40.12 42.72 34.01 47.59 34.01C52.46 34.01 55.11 37.3 55.11 44.08C55.11 50.86 49.01 59.25 44.05 59.25V59.26ZM47.59 36.02C43.59 36.02 36.97 41.3 36.97 46.93C36.97 52.56 40.15 57.27 44.05 57.27C47.63 57.27 53.11 50.2 53.11 44.1C53.11 36.99 50.32 36.03 47.59 36.03V36.02Z" fill="#231F20"/>
<path d="M56.74 40.63C53.97 46.25 55.5 55.82 59.5 57.79C63.5 59.76 68.99 56.81 71.76 51.19C74.53 45.57 70.6 37.35 66.6 35.37C62.6 33.39 59.51 35.01 56.74 40.63Z" fill="white"/>
<path d="M62.15 59.39C61.08 59.39 60.03 59.16 59.06 58.68C56.86 57.6 55.23 54.7 54.59 50.73C53.98 46.94 54.45 43 55.84 40.18C57.33 37.16 58.93 35.22 60.73 34.26C62.61 33.26 64.73 33.33 67.03 34.46C69.25 35.56 71.41 38.27 72.64 41.54C74.01 45.16 74.01 48.83 72.64 51.61C70.28 56.39 66.03 59.37 62.14 59.37L62.15 59.39ZM63.54 35.56C62.88 35.56 62.27 35.72 61.67 36.03C60.25 36.78 58.93 38.43 57.63 41.06C56.42 43.52 56.02 47.02 56.56 50.41C57.08 53.63 58.37 56.11 59.94 56.89C63.44 58.61 68.34 55.86 70.86 50.74C71.98 48.46 71.95 45.37 70.78 42.26C69.73 39.48 67.91 37.13 66.15 36.26C65.19 35.79 64.34 35.55 63.54 35.55V35.56Z" fill="#231F20"/>
<path d="M45.77 64.94C44.87 64.94 43.96 64.89 43.07 64.77C42.19 64.66 41.05 64.25 40.47 63.43C40.14 62.96 40.02 62.41 40.15 61.85C40.4 60.74 41.45 60.26 41.9 60.05C45.17 58.54 48.8 57.7 52.4 57.61C52.94 57.57 53.41 58.03 53.42 58.59C53.43 59.15 53 59.6 52.44 59.61C49.11 59.69 45.75 60.47 42.73 61.86C42.16 62.12 42.1 62.26 42.09 62.28C42.14 62.39 42.63 62.69 43.31 62.78C48.06 63.37 53.08 62.21 57.09 59.59C57.55 59.29 58.17 59.42 58.47 59.88C58.77 60.34 58.64 60.96 58.18 61.26C54.54 63.64 50.13 64.93 45.76 64.93L45.77 64.94Z" fill="#231F20"/>
<path d="M40.48 34.02C40.33 34.02 40.18 33.99 40.04 33.92C39.54 33.68 39.34 33.08 39.59 32.58C40.93 29.87 43.29 27.63 46.07 26.45C46.58 26.23 47.16 26.47 47.38 26.98C47.6 27.49 47.36 28.08 46.85 28.29C44.5 29.29 42.51 31.18 41.38 33.47C41.21 33.82 40.85 34.03 40.48 34.03V34.02Z" fill="#231F20"/>
<path d="M66.21 32.44C65.99 32.44 65.77 32.37 65.59 32.22C64.02 30.97 62.06 30.29 60.06 30.28C59.51 30.28 59.06 29.83 59.06 29.28C59.06 28.73 59.51 28.28 60.06 28.28C62.51 28.28 64.91 29.13 66.83 30.65C67.26 30.99 67.33 31.62 66.99 32.05C66.79 32.3 66.5 32.43 66.21 32.43V32.44Z" fill="#231F20"/>
<g style="mix-blend-mode:multiply" opacity="0.31">
<path d="M77.73 82.92C73.95 90.48 25.95 93.88 22.93 84.05C22.39 82.3 22.42 79.36 22.84 75.68C23.28 76.95 23.82 78.17 24.77 79.17C27.91 82.46 32.32 81 36.19 82.38C38.54 83.21 40.43 85.15 42.87 85.65C45.51 86.2 48.2 84.97 50.89 85.08C53.04 85.17 55.19 86.13 57.3 85.69C59.01 85.33 60.4 84.1 61.93 83.25C65.37 81.33 69.67 81.23 72.92 78.99C74.39 77.99 75.57 76.59 77.09 75.68C77.45 75.46 77.85 75.28 78.26 75.15C78.35 79.12 78.21 81.96 77.73 82.92Z" fill="#231F20"/>
</g>
<g style="mix-blend-mode:multiply" opacity="0.31">
<path d="M41.62 63.88C40.35 63.47 39.05 63.05 37.71 63.08C36.37 63.11 34.97 63.68 34.29 64.84C35.8 66.68 39.22 67.4 41.59 67.58C49.39 68.17 57.33 66.6 64.32 63.09C61.68 61.36 58.34 60.72 55.24 61.36C50.67 62.31 46.06 65.33 41.63 63.89L41.62 63.88Z" fill="#231F20"/>
</g>
<path d="M35.46 34.32C35.46 34.32 35.39 34.32 35.36 34.32C34.81 34.26 34.41 33.77 34.47 33.22C34.77 30.28 36.01 27.43 37.95 25.2C38.31 24.78 38.94 24.74 39.36 25.1C39.78 25.46 39.82 26.09 39.46 26.51C37.79 28.44 36.73 30.89 36.46 33.43C36.41 33.94 35.97 34.33 35.47 34.33L35.46 34.32Z" fill="white"/>
<g style="mix-blend-mode:multiply" opacity="0.13">
<path d="M39.17 40.43C38.67 43.61 38.24 47.12 39.99 49.81C42.06 52.98 46.65 53.76 50.15 52.32C49.25 53.6 47.7 55.97 46.41 56.86C45.12 57.75 43.48 58.23 41.96 57.85C40.44 57.47 39.24 56.29 38.36 54.98C35.73 51.06 36.74 44.48 39.16 40.43H39.17Z" fill="#231F20"/>
</g>
<g style="mix-blend-mode:multiply" opacity="0.13">
<path d="M56.75 40.96C56.61 44.02 57.05 47.11 58.03 50.02C58.31 50.85 58.64 51.67 59.17 52.37C60.68 54.35 63.58 54.89 65.95 54.12C68.32 53.35 70.2 51.51 71.65 49.48C71.26 52.08 69.35 55.31 67.09 56.66C64.83 58.01 61.96 58.29 59.49 57.4C58.97 57.21 58.46 56.97 58.03 56.62C57.31 56.01 56.9 55.11 56.57 54.23C55.1 50.27 55.71 45.06 56.75 40.96Z" fill="#231F20"/>
</g>
<g style="mix-blend-mode:multiply" opacity="0.31">
<path d="M77.72 18.91C73.27 18.26 70.17 17.98 65.64 17.91C62.31 17.86 58.95 20.73 55.93 22.14C52.91 23.54 44.47 23.58 41.07 21.69C34.28 21.48 38.21 15.98 42.36 11.8C42.44 14.15 41.71 16.82 44.27 18.3C46.73 19.72 49.82 18.5 52.41 17.32C56.33 15.55 60.38 13.87 64.66 13.46C68.95 13.04 73.55 14.04 76.66 17.02C77.08 17.42 77.49 17.88 77.65 18.45C77.69 18.6 77.72 18.76 77.72 18.91Z" fill="#231F20"/>
</g>
<path d="M30.89 48.58C30.77 48.58 30.65 48.54 30.55 48.45C30.35 48.26 30.33 47.95 30.52 47.74C31.23 46.96 32.52 46.81 33.39 47.4C33.62 47.56 33.68 47.87 33.52 48.09C33.36 48.31 33.05 48.38 32.83 48.22C32.36 47.9 31.65 47.99 31.26 48.4C31.16 48.51 31.03 48.56 30.89 48.56V48.58Z" fill="#231F20"/>
<path d="M33.44 45.43C33.25 45.43 33.06 45.32 32.98 45.13C32.93 45.01 32.81 44.91 32.66 44.86C32.52 44.81 32.36 44.81 32.24 44.87C32 45 31.69 44.9 31.57 44.65C31.44 44.4 31.54 44.1 31.79 43.98C32.15 43.79 32.59 43.77 33 43.92C33.41 44.07 33.74 44.36 33.9 44.74C34.01 44.99 33.9 45.29 33.64 45.4C33.58 45.43 33.51 45.44 33.44 45.44V45.43Z" fill="#231F20"/>
<path d="M74.2 43.93C74.02 43.93 73.84 43.83 73.76 43.66C73.66 43.46 73.7 43.21 73.87 43.06C74.38 42.6 75.05 42.35 75.72 42.34C76.08 42.24 76.37 42.23 76.61 42.36C76.8 42.46 76.94 42.63 76.99 42.84C77.03 43.02 76.98 43.2 76.84 43.33C76.71 43.45 76.52 43.49 76.34 43.44C76.18 43.39 76.02 43.36 75.85 43.35C75.61 43.43 75.31 43.56 75.11 43.64C74.79 43.77 74.52 43.89 74.31 43.93C74.27 43.93 74.24 43.94 74.2 43.94V43.93Z" fill="#231F20"/>
<path d="M76 47.13C75.75 47.13 75.54 46.95 75.51 46.7C75.48 46.5 75.3 46.35 75.14 46.28C74.98 46.21 74.75 46.18 74.58 46.29C74.35 46.45 74.04 46.39 73.88 46.16C73.72 45.93 73.78 45.62 74.01 45.46C74.44 45.16 75.01 45.13 75.54 45.36C76.07 45.59 76.42 46.04 76.5 46.56C76.54 46.83 76.35 47.09 76.08 47.13C76.06 47.13 76.03 47.13 76.01 47.13H76Z" fill="#231F20"/>
<path d="M25.32 77.25C25.04 77.25 24.82 77.03 24.82 76.75V75.05C24.82 74.77 25.04 74.55 25.32 74.55C25.6 74.55 25.82 74.77 25.82 75.05V76.75C25.82 77.03 25.6 77.25 25.32 77.25Z" fill="#231F20"/>
<path d="M25.86 84.62C25.86 84.62 25.81 84.62 25.78 84.62C25.51 84.58 25.32 84.32 25.36 84.05L25.66 82.07C25.7 81.8 25.96 81.61 26.23 81.65C26.5 81.69 26.69 81.95 26.65 82.22L26.35 84.2C26.31 84.45 26.1 84.62 25.86 84.62Z" fill="#231F20"/>
<path d="M31.01 86.61C30.77 86.61 30.56 86.44 30.52 86.19C30.39 85.42 30.5 84.61 30.82 83.91C30.94 83.66 31.23 83.55 31.48 83.67C31.73 83.79 31.84 84.08 31.72 84.33C31.48 84.85 31.4 85.45 31.5 86.02C31.55 86.29 31.36 86.55 31.09 86.6C31.06 86.6 31.03 86.6 31 86.6L31.01 86.61Z" fill="#231F20"/>
<path d="M35.81 87.17C35.53 87.17 35.31 86.95 35.31 86.67V85.25C35.31 84.97 35.53 84.75 35.81 84.75C36.09 84.75 36.31 84.97 36.31 85.25V86.67C36.31 86.95 36.09 87.17 35.81 87.17Z" fill="#231F20"/>
<path d="M43.48 88.59C43.48 88.59 43.43 88.59 43.41 88.59C43.14 88.55 42.95 88.3 42.99 88.02L43.11 87.19C43.15 86.92 43.41 86.73 43.68 86.77C43.95 86.81 44.14 87.06 44.1 87.34L43.98 88.17C43.94 88.42 43.73 88.6 43.49 88.6L43.48 88.59Z" fill="#231F20"/>
<path d="M51.97 87.74C51.69 87.74 51.47 87.52 51.47 87.24V86.11C51.47 85.83 51.69 85.61 51.97 85.61C52.25 85.61 52.47 85.83 52.47 86.11V87.24C52.47 87.52 52.25 87.74 51.97 87.74Z" fill="#231F20"/>
<path d="M61.33 86.89C61.33 86.89 61.26 86.89 61.23 86.89C60.96 86.84 60.78 86.57 60.84 86.3L61.12 84.88C61.17 84.61 61.43 84.43 61.71 84.49C61.98 84.54 62.16 84.81 62.1 85.08L61.82 86.5C61.77 86.74 61.56 86.9 61.33 86.9V86.89Z" fill="#231F20"/>
<path d="M68.72 85.49C68.62 85.49 68.51 85.46 68.42 85.39C68.2 85.23 68.15 84.91 68.32 84.69C68.53 84.41 68.59 84.04 68.49 83.71C68.41 83.45 68.56 83.17 68.82 83.09C69.09 83.01 69.36 83.16 69.44 83.42C69.63 84.05 69.51 84.76 69.12 85.29C69.02 85.42 68.87 85.49 68.72 85.49Z" fill="#231F20"/>
<path d="M74.14 82.67C74.07 82.67 73.99 82.65 73.92 82.62C73.67 82.5 73.57 82.2 73.69 81.95C73.94 81.44 73.99 80.83 73.85 80.29C73.78 80.02 73.94 79.75 74.21 79.68C74.48 79.61 74.75 79.77 74.82 80.04C75.02 80.81 74.94 81.67 74.59 82.39C74.5 82.57 74.32 82.67 74.14 82.67Z" fill="#231F20"/>
<path d="M76.92 78.67C76.86 78.67 76.8 78.66 76.75 78.64C76.49 78.54 76.36 78.26 76.46 78C76.73 77.27 76.82 76.47 76.7 75.7C76.66 75.43 76.85 75.17 77.12 75.13C77.39 75.09 77.65 75.28 77.69 75.55C77.83 76.49 77.73 77.46 77.4 78.35C77.32 78.55 77.13 78.68 76.93 78.68L76.92 78.67Z" fill="#231F20"/>
<path d="M55.73 86.35C55.73 86.35 55.64 86.35 55.6 86.33C55.33 86.26 55.18 85.98 55.25 85.72L55.72 83.99C55.79 83.72 56.07 83.57 56.33 83.64C56.6 83.71 56.75 83.99 56.68 84.25L56.21 85.98C56.15 86.2 55.95 86.35 55.73 86.35Z" fill="#231F20"/>
<path d="M40.31 86.6C40.31 86.6 40.27 86.6 40.24 86.6C39.97 86.56 39.77 86.31 39.81 86.04L40.11 83.77C40.15 83.5 40.4 83.3 40.67 83.34C40.94 83.38 41.14 83.63 41.1 83.9L40.8 86.17C40.77 86.42 40.55 86.61 40.3 86.61L40.31 86.6Z" fill="#231F20"/>
<path d="M30.42 83.2C30.42 83.2 30.33 83.2 30.29 83.18C30.02 83.11 29.87 82.83 29.94 82.57L30.48 80.58C30.55 80.31 30.83 80.15 31.09 80.23C31.36 80.3 31.51 80.58 31.44 80.84L30.9 82.83C30.84 83.05 30.64 83.2 30.42 83.2Z" fill="#231F20"/>
<path d="M39.5 65.91C39.37 65.91 39.24 65.86 39.15 65.76C38.96 65.56 38.96 65.25 39.15 65.05L39.43 64.77C39.63 64.58 39.94 64.58 40.14 64.77C40.33 64.97 40.33 65.28 40.14 65.48L39.86 65.76C39.76 65.86 39.64 65.91 39.51 65.91H39.5Z" fill="#231F20"/>
<path d="M42.62 67.9C42.57 67.9 42.51 67.9 42.46 67.87C42.2 67.78 42.06 67.5 42.14 67.24L42.42 66.39C42.51 66.13 42.79 65.99 43.05 66.07C43.31 66.16 43.45 66.44 43.37 66.7L43.09 67.55C43.02 67.76 42.82 67.89 42.62 67.89V67.9Z" fill="#231F20"/>
<path d="M48.29 67.33C48.21 67.33 48.14 67.31 48.07 67.28C47.82 67.16 47.72 66.86 47.84 66.61L48.12 66.04C48.24 65.79 48.55 65.69 48.79 65.82C49.04 65.94 49.14 66.24 49.01 66.49L48.73 67.05C48.64 67.23 48.47 67.33 48.28 67.33H48.29Z" fill="#231F20"/>
<path d="M54.81 66.48H54.77C54.57 66.46 54.39 66.33 54.33 66.14C54.24 65.86 54.31 65.6 54.54 65.38L54.64 65.19C54.73 65.01 54.92 64.9 55.12 64.92C55.32 64.93 55.5 65.07 55.56 65.26C55.65 65.54 55.58 65.8 55.34 66.02L55.25 66.21C55.16 66.38 54.99 66.49 54.8 66.49L54.81 66.48Z" fill="#231F20"/>
<path d="M49.39 81.91C49.23 81.91 49.07 81.83 48.97 81.69C48.45 80.92 48.3 79.91 48.54 78.93C48.78 77.95 49.39 77.13 50.21 76.69C50.45 76.56 50.76 76.65 50.89 76.89C51.02 77.13 50.93 77.44 50.69 77.57C50.12 77.88 49.69 78.46 49.52 79.17C49.35 79.88 49.45 80.59 49.81 81.13C49.96 81.36 49.9 81.67 49.67 81.82C49.58 81.88 49.49 81.9 49.39 81.9V81.91Z" fill="#231F20"/>
</g>
<g class="eyes-1">
<path d="M45.79 49.94C46.8835 49.94 47.77 49.0535 47.77 47.96C47.77 46.8665 46.8835 45.98 45.79 45.98C44.6965 45.98 43.81 46.8665 43.81 47.96C43.81 49.0535 44.6965 49.94 45.79 49.94Z" fill="black"/>
<path d="M63.18 49.47C64.2735 49.47 65.16 48.5835 65.16 47.49C65.16 46.3965 64.2735 45.51 63.18 45.51C62.0865 45.51 61.2 46.3965 61.2 47.49C61.2 48.5835 62.0865 49.47 63.18 49.47Z" fill="black"/>
</g>
<g class="eyes-2" visibility="hidden">
<path d="M47.98 52.53C49.0735 52.53 49.96 51.6435 49.96 50.55C49.96 49.4565 49.0735 48.57 47.98 48.57C46.8865 48.57 46 49.4565 46 50.55C46 51.6435 46.8865 52.53 47.98 52.53Z" fill="black"/>
<path d="M59.88 51.96C60.9735 51.96 61.86 51.0735 61.86 49.98C61.86 48.8865 60.9735 48 59.88 48C58.7865 48 57.9 48.8865 57.9 49.98C57.9 51.0735 58.7865 51.96 59.88 51.96Z" fill="black"/>
</g>
<g class="mouth-1">
<path d="M42.1 74.59C38.88 74.59 35.69 74.21 33.4 72.01C30.49 69.21 30.48 64.84 30.7 60.96C30.73 60.41 31.21 59.99 31.75 60.02C32.3 60.05 32.72 60.52 32.69 61.08C32.5 64.52 32.48 68.37 34.78 70.58C36.86 72.58 40.24 72.66 43.52 72.58L58.23 72.2C60.4 72.14 62.86 72.08 64.85 71.09C68.77 69.15 70.27 64.16 71.37 59.64C71.5 59.1 72.04 58.77 72.58 58.9C73.12 59.03 73.45 59.57 73.32 60.11C72.12 65.07 70.44 70.55 65.75 72.88C63.36 74.06 60.67 74.13 58.29 74.19L43.58 74.57C43.09 74.58 42.6 74.59 42.11 74.59H42.1Z" fill="#231F20"/>
<path d="M29.23 61.94C29.04 61.94 28.86 61.83 28.77 61.64C28.37 60.73 28.59 59.65 29.36 58.81C30.13 57.97 31.19 57.65 32.13 57.97C32.39 58.06 32.53 58.34 32.44 58.61C32.35 58.87 32.07 59.01 31.81 58.92C31.14 58.69 30.47 59.08 30.1 59.49C29.73 59.89 29.4 60.6 29.68 61.24C29.79 61.49 29.68 61.79 29.43 61.9C29.36 61.93 29.3 61.94 29.23 61.94Z" fill="#231F20"/>
<path d="M75.73 61.02C75.61 61.02 75.49 60.98 75.39 60.89C75.19 60.7 75.18 60.39 75.36 60.18C75.81 59.7 75.87 58.9 75.51 58.35C75.15 57.8 74.38 57.55 73.77 57.77C73.51 57.86 73.22 57.73 73.13 57.47C73.04 57.21 73.17 56.92 73.43 56.83C74.48 56.45 75.73 56.87 76.35 57.8C76.96 58.73 76.86 60.05 76.1 60.86C76 60.97 75.87 61.02 75.73 61.02Z" fill="#231F20"/>
</g>
<g class="mouth-2" visibility="hidden">
<path d="M31.0408 56.4987C31.0408 56.4987 27.3508 70.9587 48.9008 68.1187C70.4508 65.2787 71.8608 56.7787 71.8608 56.7787C71.8608 56.7787 74.4108 68.9687 69.5908 74.3487C64.7708 79.7287 41.8108 82.8487 33.5908 78.5987C25.3708 74.3487 31.0408 56.4887 31.0408 56.4887V56.4987Z" fill="white"/>
<path d="M45.2108 81.5587C40.3108 81.5587 35.8808 80.9187 33.1308 79.4987C24.2608 74.9087 29.8408 56.9587 30.0908 56.1987C30.2508 55.6887 30.8008 55.3887 31.3208 55.5387C31.8408 55.6887 32.1508 56.2187 32.0108 56.7487C31.9908 56.8287 30.9708 61.1587 33.7008 64.2187C36.2908 67.1287 41.3608 68.1087 48.7708 67.1287C69.1008 64.4587 70.8608 56.6787 70.8808 56.5987C70.9708 56.1287 71.3808 55.7887 71.8608 55.7887C72.3808 55.7887 72.7508 56.1087 72.8508 56.5787C72.9608 57.0987 75.4508 69.3287 70.3508 75.0287C66.8208 78.9787 55.0908 81.5587 45.2208 81.5587H45.2108ZM30.6008 62.9887C29.7608 68.2887 29.5908 75.4187 34.0608 77.7287C42.2108 81.9487 64.4508 78.6187 68.8608 73.6987C71.9008 70.2987 71.7308 63.7387 71.3208 59.9287C69.0008 62.8887 63.2308 67.2487 49.0408 69.1187C40.9208 70.1887 35.2608 68.9787 32.2008 65.5387C31.4808 64.7287 30.9608 63.8587 30.6008 62.9887Z" fill="#231F20"/>
<path d="M50.6008 81.0287C50.3408 81.0287 50.0908 80.9287 49.8908 80.7387C49.5908 80.4387 49.5208 79.9987 49.6808 79.6287L49.2208 68.7387C49.2008 68.1887 49.6308 67.7187 50.1808 67.6987C50.6908 67.6887 51.2008 68.0987 51.2208 68.6587L51.6408 78.5287C51.7308 78.5687 51.8208 78.6287 51.9008 78.7087C52.2908 79.0887 52.3108 79.7087 51.9508 80.1087L51.4408 80.6687C51.3408 80.7787 51.2308 80.8587 51.1008 80.9087C50.9508 80.9987 50.7708 81.0387 50.6008 81.0387V81.0287Z" fill="#231F20"/>
<path d="M37.3108 79.6087C36.7908 79.6087 36.3608 79.2087 36.3108 78.6887C36.0408 75.2487 36.3108 71.8087 37.1108 68.4487C37.2408 67.9087 37.7808 67.5787 38.3208 67.7087C38.8608 67.8387 39.1908 68.3787 39.0608 68.9187C38.3108 72.0687 38.0508 75.3087 38.3108 78.5387C38.3508 79.0887 37.9408 79.5687 37.3908 79.6187C37.3608 79.6187 37.3408 79.6187 37.3108 79.6187V79.6087Z" fill="#231F20"/>
<path d="M65.8308 77.5287C65.8308 77.5287 65.7308 77.5287 65.6808 77.5187C65.1508 77.4387 64.7808 76.9687 64.8308 76.4387L64.9008 75.6887C64.9108 75.5387 64.9608 75.3987 65.0308 75.2787C65.5408 71.7887 65.0908 68.1287 63.7308 64.8787C63.5208 64.3687 63.7608 63.7787 64.2708 63.5687C64.7708 63.3587 65.3608 63.5987 65.5808 64.1087C67.2308 68.0587 67.6708 72.5487 66.8108 76.7387C66.7108 77.2087 66.3008 77.5387 65.8308 77.5387V77.5287Z" fill="#231F20"/>
</g>
<g class="tounge" visibility="hidden">
<path d="M37.84 73.38C37.66 72.79 24.99 80.44 28.39 88.4C36.59 92.35 54.41 71.28 57.4 73.09L37.84 73.37V73.38Z" fill="#FF5959"/>
<path d="M30.7 89.9C29.73 89.9 28.81 89.72 27.96 89.31C27.74 89.2 27.57 89.02 27.47 88.8C26.09 85.58 26.88 82 29.75 78.45C32.34 75.24 36.8 72.13 37.99 72.37H38.03L56.11 72.12C56.83 71.9 57.41 71.94 57.92 72.25C58.3 72.48 58.48 72.94 58.37 73.37C58.26 73.8 57.87 74.1 57.42 74.11L56.31 74.13C54.91 74.78 51.84 77.25 49.31 79.3C43.35 84.11 36.16 89.91 30.7 89.91V89.9ZM29.17 87.65C33.71 89.31 41.97 82.63 48.05 77.73C49.85 76.27 51.34 75.08 52.59 74.17L37.86 74.38C37.86 74.38 37.81 74.38 37.79 74.38C36.63 74.85 31.67 78.1 29.65 82.28C28.74 84.17 28.58 85.98 29.17 87.65Z" fill="#231F20"/>
<path d="M29.49 83.97C29.4 83.97 29.32 83.95 29.24 83.9C29 83.76 28.92 83.45 29.06 83.22C30.3 81.11 32.07 79.36 34.19 78.14C34.43 78 34.73 78.08 34.87 78.32C35.01 78.56 34.92 78.86 34.69 79C32.72 80.13 31.08 81.77 29.93 83.72C29.84 83.88 29.67 83.97 29.5 83.97H29.49Z" fill="white"/>
<path d="M31.76 86.61C31.66 86.61 31.56 86.58 31.47 86.52C31.25 86.36 31.19 86.05 31.35 85.82C34.15 81.91 37.5 78.45 41.32 75.54C41.54 75.37 41.85 75.41 42.02 75.63C42.19 75.85 42.15 76.16 41.93 76.33C38.19 79.19 34.91 82.58 32.17 86.4C32.07 86.54 31.92 86.61 31.76 86.61Z" fill="#231F20"/>
</g>
<defs>
<clipPath id="clip0_1_2">
<rect width="101.79" height="162.16" fill="white"/>
</clipPath>
</defs>
</svg>
