<?xml version="1.0" encoding="UTF-8"?><svg xmlns="http://www.w3.org/2000/svg" xmlns:xlink="http://www.w3.org/1999/xlink" viewBox="0 0 132.6 135.7"><defs><style>.d{fill:#fff;}.e{stroke-width:2px;}.e,.f{fill:#c9c9c9;}.e,.f,.g{stroke:#231f20;stroke-linecap:round;stroke-linejoin:round;}.h{isolation:isolate;}.f,.g{stroke-width:.5px;}.g{fill:#d9d9d9;}.i{opacity:.13;}.i,.j{mix-blend-mode:multiply;}.j{opacity:.31;}.k{clip-path:url(#b);}.l{fill:#ffdcc9;}.m,.n{fill:none;}.o{fill:#7D654D;}.p{fill:#231f20;}.n{clip-path:url(#c);}.q{fill:#666;}</style><clipPath id="c"><path class="m" d="M131.6,66.3c0,28.07-17.72,52.01-42.58,61.23-7.07,2.63-14.72,4.06-22.71,4.06-16.54,0-31.64-6.15-43.15-16.29C9.57,103.34,1,85.82,1,66.3,1,30.24,30.24,1,66.3,1s65.3,29.23,65.3,65.3Z"/></clipPath><clipPath id="b"><path class="n" d="M66.3,1.71C30.68,1.71,1.71,30.69,1.71,66.3c0,18.54,7.99,36.21,21.91,48.48,11.79,10.39,26.95,16.11,42.68,16.11,7.74,0,15.3-1.35,22.47-4.01,25.2-9.35,42.13-33.69,42.13-60.57-.01-35.62-28.98-64.6-64.6-64.6Z"/></clipPath></defs><g class="h"><g id="a"><g><path class="e" d="M131.6,66.3c0,28.07-17.72,52.01-42.58,61.23-7.07,2.63-14.72,4.06-22.71,4.06-16.54,0-31.64-6.15-43.15-16.29C9.57,103.34,1,85.82,1,66.3,1,30.24,30.24,1,66.3,1s65.3,29.23,65.3,65.3Z"/><path class="f" d="M66.3,1.71C30.68,1.71,1.71,30.69,1.71,66.3c0,18.54,7.99,36.21,21.91,48.48,11.79,10.39,26.95,16.11,42.68,16.11,7.74,0,15.3-1.35,22.47-4.01,25.2-9.35,42.13-33.69,42.13-60.57-.01-35.62-28.98-64.6-64.6-64.6Z"/></g><g class="k"><g><path class="e" d="M131.6,66.3c0,28.07-17.72,52.01-42.58,61.23-7.07,2.63-14.72,4.06-22.71,4.06-16.54,0-31.64-6.15-43.15-16.29C9.57,103.34,1,85.82,1,66.3,1,30.24,30.24,1,66.3,1s65.3,29.23,65.3,65.3Z"/><path class="g" d="M66.3,1.71C30.68,1.71,1.71,30.69,1.71,66.3c0,18.54,7.99,36.21,21.91,48.48,11.79,10.39,26.95,16.11,42.68,16.11,7.74,0,15.3-1.35,22.47-4.01,25.2-9.35,42.13-33.69,42.13-60.57-.01-35.62-28.98-64.6-64.6-64.6Z"/></g><g><g><g><path d="M23.95,134.92H101.21s-1.02-17.74-9.22-30.73c-5.27-8.34-18.44-11.41-18.44-11.41l-21.07-.44s-28.97,7.46-28.54,42.58Z"/><path class="p" d="M101.21,135.7H23.95c-.42,0-.77-.34-.77-.76-.44-35.32,28.82-43.27,29.12-43.34,.07-.02,.14-.02,.21-.02l21.07,.44c.05,0,.11,0,.16,.02,.55,.13,13.54,3.24,18.92,11.75,8.21,13,9.33,30.92,9.34,31.1,.01,.21-.06,.42-.21,.58-.15,.16-.35,.24-.56,.24Zm-76.5-1.55H100.38c-.32-3.62-2.03-18.45-9.04-29.54-4.83-7.65-16.82-10.79-17.89-11.06l-20.87-.43c-1.81,.52-27.87,8.6-27.86,41.03Z"/></g><g><path class="l" d="M56.87,75.51l-4.39,17.41s16.1,4.98,21.07-.59c.22-8.05-1.76-18.58-1.76-18.58l-14.93,1.76Z"/><path class="p" d="M65.11,95.74c-6.02,0-12.44-1.95-12.86-2.08-.39-.12-.62-.53-.52-.93l4.39-17.41c.08-.31,.34-.54,.66-.58l14.93-1.76c.41-.05,.78,.23,.85,.63,.02,.11,1.99,10.71,1.77,18.75,0,.18-.07,.36-.2,.5-1.96,2.19-5.42,2.89-9.02,2.89Zm-11.7-3.36c3.05,.84,15.16,3.84,19.37-.36,.14-6.63-1.2-14.96-1.62-17.41l-13.67,1.61-4.08,16.17Z"/></g><path class="p" d="M54.24,79.17s11.85,9.88,19.1,8.12c-.66-6.8-2.2-12.95-2.2-12.95l-16.9,4.83Z"/><path class="q" d="M39.55,132.8c-.39,0-.72-.29-.77-.69-.72-6.32,.63-12.84,3.8-18.36,.21-.37,.68-.5,1.06-.29,.37,.21,.5,.69,.29,1.06-3.01,5.23-4.29,11.42-3.61,17.41,.05,.42-.26,.81-.68,.86-.03,0-.06,0-.09,0Z"/><path class="q" d="M81.24,131.89s-.06,0-.09,0c-.42-.05-.73-.43-.69-.85,.64-5.77-.31-11.6-2.73-16.88-.18-.39,0-.85,.38-1.03,.39-.18,.85,0,1.03,.38,2.54,5.53,3.53,11.65,2.86,17.69-.04,.4-.38,.69-.77,.69Z"/><path class="q" d="M70.03,128.37c-1.82,0-3.64-.18-5.43-.53-.28-.06-.51-.26-.59-.53-.08-.27-.01-.57,.19-.77l1.82-1.86-6.16,1.46c-1.37,.32-1.85-.36-1.99-.67-.24-.52-.11-1.1,.39-1.72,.95-1.17,1.95-2.32,2.98-3.42-3.51,.76-6.89,2.18-9.88,4.17-.36,.24-.84,.14-1.07-.22-.24-.36-.14-.84,.22-1.07,3.84-2.56,8.29-4.22,12.86-4.82,.33-.04,.65,.13,.8,.43,.15,.3,.08,.66-.15,.89-1.57,1.54-3.07,3.19-4.46,4.9l8.73-2.07c.34-.08,.68,.07,.85,.37,.17,.3,.12,.68-.12,.92l-2.66,2.71c2.02,.28,4.07,.33,6.1,.15,.43-.04,.8,.28,.84,.7,.04,.43-.28,.8-.7,.84-.85,.08-1.71,.12-2.56,.12Z"/></g><g><path class="l" d="M45.02,52.39s-6.44-4.68-7.61,0c-1.17,4.68,7.61,2.93,7.61,2.93v-2.93Z"/><path class="p" d="M41.7,56.42c-1.64,0-3.45-.27-4.43-1.3-.48-.51-.98-1.43-.61-2.91,.39-1.58,1.31-2.21,2.01-2.46,2.61-.95,6.38,1.72,6.8,2.03,.2,.15,.32,.38,.32,.63v2.93c0,.37-.26,.69-.62,.76-.3,.06-1.8,.34-3.47,.34Zm-1.8-5.34c-.25,0-.49,.03-.7,.11-.51,.19-.85,.64-1.04,1.38-.22,.87,.03,1.25,.23,1.47,.95,.99,3.86,.93,5.85,.62v-1.87c-.97-.64-2.92-1.71-4.34-1.71Z"/></g><g><path class="l" d="M81.6,51.51s6.91-3.54,7.32-.88c.59,3.8-7.02,3.8-7.02,3.8l-.29-2.93Z"/><path class="p" d="M81.9,55.21c-.4,0-.73-.3-.77-.7l-.29-2.93c-.03-.32,.13-.62,.42-.77,.9-.46,5.47-2.7,7.46-1.69,.54,.28,.88,.76,.98,1.38,.14,.93-.1,1.8-.69,2.49-1.84,2.14-6.56,2.2-7.09,2.2Zm.53-3.24l.17,1.67c1.55-.09,4.23-.48,5.22-1.64,.31-.36,.42-.75,.34-1.25-.02-.16-.08-.2-.15-.24-.87-.44-3.67,.54-5.58,1.45Z"/></g><g><path class="l" d="M83.36,74.34c-2.93,5.85-40.1,8.49-42.44,.88-.42-1.36-.39-3.63-.07-6.48,1.52-13.09,9.56-38.31,11.48-42.39,2.34-4.98,12-4.98,12-4.98,8.49-.59,15.24-2.07,18.07,10.83,2.07,9.43,1.8,26.91,1.36,36.13-.15,3.07-.04,5.27-.41,6.02Z"/><path class="p" d="M57.9,80.67c-1.92,0-3.76-.07-5.41-.21-5.04-.42-11.26-1.63-12.31-5.02-.43-1.39-.46-3.62-.1-6.8,1.5-12.92,9.47-38.2,11.55-42.63,2.52-5.36,12.29-5.42,12.7-5.42,.52-.04,1.08-.08,1.64-.12,7.73-.6,14.4-1.12,17.19,11.56,2.44,11.12,1.57,32.22,1.38,36.33-.05,.96-.07,1.83-.09,2.6-.05,1.91-.07,3.06-.41,3.73h0c-1.95,3.9-15.48,5.98-26.15,5.98Zm12.72-58.9c-1.41,0-2.91,.12-4.52,.24-.56,.04-1.13,.09-1.71,.13-.15,0-9.25,.06-11.36,4.54-1.75,3.73-9.87,28.79-11.42,42.15-.33,2.92-.32,5,.04,6.16,.61,1.97,4.6,3.41,10.95,3.93,12.13,1.01,28.42-1.66,30.05-4.93,.18-.36,.21-1.68,.24-3.07,.02-.78,.04-1.66,.09-2.63,.2-4.08,1.05-25-1.34-35.93-1.97-8.96-5.79-10.59-11.04-10.59Zm12.74,52.57h0Z"/></g><g><path class="o" d="M83.47,24.79s-.09-.02-.12-.02c-3.45-.5-5.85-.72-9.35-.77-2.58-.04-5.18,2.18-7.52,3.28-2.34,1.08-8.87,1.12-11.51-.35-5.26-.16-2.21-4.42,1-7.66,1.15-1.16,2.32-2.19,3.14-2.85,3.58-2.88,8.38-4.5,12.82-5.46,.39-.09,.9-.12,1.13,.21,.19,.27,.09,.64-.04,.94-.56,1.36-1.48,2.56-2.64,3.45,4.8-1.22,10.22-1.83,14.43,.78-1.59,1.34-3.51,2.29-5.54,2.74,1.97,1.36,3.48,3.41,4.19,5.7Z"/><path class="p" d="M61.26,28.84c-2.43,0-4.95-.36-6.5-1.15-1.75-.09-2.85-.65-3.25-1.67-.64-1.62,.63-4.01,3.91-7.31,1.02-1.03,2.22-2.11,3.21-2.91,3.12-2.51,7.55-4.4,13.15-5.61,1.12-.24,1.67,.15,1.93,.52,.3,.45,.32,1.01,.04,1.68-.27,.65-.61,1.27-1.01,1.84,3.86-.74,8.59-.98,12.5,1.45,.21,.13,.35,.35,.36,.6s-.08,.49-.27,.65c-1.29,1.09-2.78,1.93-4.38,2.48,1.52,1.38,2.66,3.16,3.27,5.14,.08,.26,.02,.55-.17,.75-.19,.2-.47,.29-.74,.23l.16-.76-.17,.76c-3.64-.53-5.97-.72-9.32-.77-1.59,0-3.28,.98-4.93,1.96-.74,.44-1.51,.9-2.25,1.24-1.22,.56-3.34,.87-5.54,.87Zm11.1-17.17c-.06,0-.15,.02-.26,.04-5.36,1.16-9.57,2.94-12.5,5.31-.95,.76-2.1,1.8-3.08,2.79-3.06,3.08-3.85,4.94-3.57,5.64,.16,.41,.91,.66,2.05,.7,.12,0,.24,.04,.35,.1,2.37,1.32,8.65,1.32,10.8,.32,.67-.31,1.37-.73,2.12-1.17,1.83-1.08,3.73-2.18,5.74-2.18,3.04,.05,5.27,.21,8.28,.62-.75-1.65-1.94-3.08-3.44-4.11-.25-.17-.38-.48-.32-.79,.06-.3,.29-.54,.59-.61,1.53-.34,3-.98,4.29-1.88-3.17-1.51-7.29-1.55-12.83-.14-.35,.09-.73-.08-.89-.41-.16-.33-.07-.73,.23-.95,1.06-.81,1.89-1.9,2.39-3.13,.02-.06,.04-.1,.05-.14Z"/></g><path class="p" d="M58.63,25c-.11,0-.22-.02-.33-.07-.39-.18-.55-.65-.37-1.03,1.29-2.72,4.28-4.56,7.3-4.49,.43,.01,.77,.37,.75,.79-.01,.42-.36,.75-.77,.75h-.02c-2.38-.08-4.83,1.42-5.86,3.61-.13,.28-.41,.44-.7,.44Z"/><path class="p" d="M65.11,24.1c-.18,0-.35-.06-.5-.18-.33-.28-.37-.76-.09-1.09,2.11-2.5,5.74-3.53,8.84-2.5,.41,.13,.63,.57,.49,.98-.13,.41-.57,.62-.98,.49-2.48-.82-5.49,.03-7.17,2.03-.15,.18-.37,.28-.59,.28Z"/><path class="p" d="M52.03,24.19s-.04,0-.07,0c-.43-.03-.74-.41-.71-.84,.12-1.5,.04-3-.25-4.47-.08-.42,.19-.83,.61-.91,.42-.09,.83,.19,.91,.61,.32,1.61,.42,3.26,.28,4.9-.03,.4-.37,.71-.77,.71Z"/><path class="p" d="M53.56,21.86s-.09,0-.13-.01c-.42-.07-.7-.47-.63-.89l.97-5.6c.07-.42,.48-.7,.89-.63,.42,.07,.7,.47,.63,.89l-.97,5.6c-.07,.38-.39,.64-.76,.64Z"/><g><path class="d" d="M65.07,44.27c0,4.85-4.34,10.98-7.79,10.98s-6.26-3.93-6.26-8.78,5.54-9.22,9-9.22,5.05,2.17,5.05,7.02Z"/><path class="p" d="M57.28,56.02c-3.88,0-7.03-4.29-7.03-9.55s6-9.99,9.77-9.99,5.82,2.55,5.82,7.8-4.72,11.75-8.57,11.75Zm2.74-18c-3.09,0-8.23,4.09-8.23,8.44s2.46,8.01,5.48,8.01c2.77,0,7.02-5.47,7.02-10.2,0-5.51-2.16-6.25-4.27-6.25Z"/></g><g><path class="d" d="M67.1,41.59c-2.14,4.35-.96,11.76,2.14,13.29s7.35-.76,9.49-5.11-.9-10.72-4-12.25c-3.1-1.53-5.49-.28-7.63,4.07Z"/><path class="p" d="M71.3,56.12c-.83,0-1.64-.18-2.39-.55-1.7-.84-2.96-3.08-3.46-6.16-.47-2.93-.11-5.99,.97-8.17,2.32-4.71,5.16-6.15,8.67-4.42,1.72,.85,3.39,2.95,4.35,5.49,1.06,2.81,1.06,5.65,0,7.8-1.82,3.7-5.12,6.01-8.13,6.01Zm1.1-18.45c-1.42,0-2.97,.97-4.59,4.27-.94,1.91-1.25,4.61-.83,7.24,.4,2.5,1.4,4.42,2.61,5.01,2.71,1.33,6.5-.8,8.46-4.76,.87-1.77,.85-4.16-.06-6.57-.81-2.15-2.22-3.97-3.58-4.64-.63-.31-1.3-.55-2-.55Z"/></g><circle cx="58.63" cy="47.27" r="1.54"/><circle cx="72.09" cy="46.9" r="1.54"/><path class="p" d="M58.61,60.42c-.7,0-1.4-.04-2.09-.13-.68-.09-1.57-.4-2.01-1.04-.26-.37-.34-.79-.25-1.22,.19-.85,1.01-1.23,1.35-1.39,2.53-1.17,5.35-1.82,8.13-1.89h.02c.42,0,.76,.34,.77,.76,0,.43-.33,.78-.76,.79-2.58,.06-5.18,.66-7.52,1.75-.44,.2-.49,.31-.49,.32,.04,.08,.42,.32,.94,.39,3.68,.46,7.57-.44,10.67-2.47,.36-.23,.84-.13,1.07,.22,.23,.36,.13,.84-.22,1.07-2.82,1.85-6.24,2.84-9.62,2.84Z"/><path class="p" d="M54.52,36.47c-.11,0-.23-.03-.34-.08-.38-.19-.54-.65-.35-1.04,1.03-2.1,2.86-3.83,5.02-4.75,.39-.17,.85,.01,1.02,.41,.17,.39-.02,.85-.41,1.02-1.82,.78-3.36,2.24-4.24,4.01-.13,.27-.41,.43-.69,.43Z"/><path class="p" d="M74.44,35.25c-.17,0-.34-.06-.48-.17-1.21-.96-2.73-1.5-4.28-1.5-.43,0-.77-.35-.77-.78s.35-.77,.77-.77h0c1.9,0,3.76,.66,5.24,1.84,.34,.27,.39,.75,.12,1.09-.15,.19-.38,.29-.61,.29Z"/><g class="j"><path class="p" d="M83.36,74.34c-2.93,5.85-40.1,8.49-42.44,.88-.42-1.36-.39-3.63-.07-6.48,.34,.98,.76,1.93,1.49,2.7,2.43,2.55,5.85,1.42,8.84,2.49,1.82,.64,3.28,2.14,5.17,2.53,2.04,.43,4.13-.53,6.21-.44,1.66,.07,3.33,.81,4.96,.47,1.32-.28,2.4-1.23,3.59-1.89,2.66-1.49,5.99-1.56,8.51-3.3,1.14-.77,2.05-1.86,3.23-2.56,.28-.17,.59-.31,.91-.41,.07,3.07-.04,5.27-.41,6.02Z"/></g><g class="j"><path class="p" d="M55.4,59.59c-.99-.32-1.99-.64-3.03-.62s-2.12,.47-2.65,1.36c1.17,1.42,3.81,1.98,5.65,2.12,6.04,.46,12.19-.76,17.6-3.48-2.05-1.34-4.63-1.84-7.03-1.34-3.54,.74-7.11,3.07-10.54,1.96Z"/></g><path class="d" d="M50.63,36.71s-.05,0-.08,0c-.43-.04-.74-.42-.69-.85,.23-2.28,1.19-4.48,2.69-6.21,.28-.32,.77-.36,1.09-.08,.32,.28,.36,.77,.08,1.09-1.29,1.49-2.12,3.39-2.32,5.36-.04,.4-.38,.7-.77,.7Z"/><g class="i"><path class="p" d="M53.5,41.44c-.39,2.46-.72,5.18,.64,7.26,1.6,2.46,5.16,3.06,7.87,1.95-.7,.99-1.9,2.83-2.9,3.51s-2.27,1.06-3.44,.76c-1.18-.3-2.11-1.21-2.78-2.22-2.03-3.03-1.25-8.13,.62-11.27Z"/></g><g class="i"><path class="p" d="M67.11,41.84c-.11,2.37,.23,4.76,.99,7.01,.22,.64,.47,1.28,.88,1.82,1.17,1.54,3.42,1.95,5.25,1.36s3.29-2.02,4.41-3.59c-.3,2.01-1.78,4.52-3.53,5.56s-3.97,1.26-5.89,.57c-.4-.15-.8-.33-1.13-.61-.56-.47-.88-1.17-1.13-1.85-1.14-3.07-.66-7.1,.14-10.27Z"/></g><g class="j"><path class="p" d="M83.35,24.77c-3.45-.5-5.85-.72-9.35-.77-2.58-.04-5.18,2.18-7.52,3.28-2.34,1.08-8.87,1.12-11.51-.35-5.26-.16-2.21-4.42,1-7.66,.06,1.82-.5,3.89,1.48,5.03,1.9,1.1,4.3,.15,6.3-.76,3.04-1.37,6.17-2.67,9.49-2.99,3.32-.33,6.88,.45,9.29,2.76,.33,.31,.64,.67,.77,1.11,.03,.12,.05,.24,.05,.36Z"/></g><path class="p" d="M47.09,47.74c-.09,0-.19-.03-.26-.1-.16-.14-.17-.39-.03-.55,.55-.6,1.55-.72,2.22-.26,.18,.12,.22,.36,.1,.54-.12,.18-.36,.22-.54,.1-.36-.25-.92-.18-1.21,.14-.08,.08-.18,.13-.29,.13Z"/><path class="p" d="M49.06,45.31c-.15,0-.29-.09-.36-.23-.04-.09-.13-.17-.24-.21s-.23-.04-.32,0c-.19,.1-.42,.02-.52-.17-.1-.19-.02-.42,.17-.52,.28-.15,.62-.16,.94-.05,.32,.11,.57,.34,.69,.63,.08,.2,0,.42-.2,.51-.05,.02-.1,.03-.15,.03Z"/><path class="p" d="M80.63,44.15c-.14,0-.28-.08-.34-.21-.08-.16-.05-.35,.08-.47,.39-.35,.91-.55,1.44-.56,.28-.07,.5-.08,.69,.01,.15,.07,.25,.21,.29,.37,.03,.14,0,.28-.11,.38-.1,.1-.25,.13-.39,.08-.12-.04-.25-.06-.38-.07-.19,.06-.42,.16-.57,.22-.24,.1-.46,.19-.62,.23-.03,0-.06,0-.08,0Zm1.56-.52h0Z"/><path class="p" d="M82.02,46.62c-.19,0-.36-.14-.38-.33-.02-.16-.16-.27-.29-.33-.13-.05-.3-.08-.43,0-.18,.12-.42,.08-.54-.1-.12-.18-.08-.42,.1-.54,.34-.23,.78-.26,1.18-.08,.41,.18,.68,.52,.74,.93,.03,.21-.12,.41-.33,.44-.02,0-.04,0-.05,0Z"/><path class="p" d="M55.77,67.89c-2.5,0-4.97-.29-6.74-2-2.26-2.17-2.26-5.55-2.09-8.56,.02-.43,.39-.75,.82-.73,.43,.02,.75,.39,.73,.82-.15,2.66-.16,5.65,1.62,7.35,1.61,1.55,4.23,1.62,6.77,1.55l11.39-.29c1.68-.04,3.58-.09,5.13-.86,3.04-1.5,4.2-5.36,5.05-8.86,.1-.42,.52-.67,.93-.57,.42,.1,.67,.52,.57,.93-.93,3.84-2.23,8.09-5.87,9.89-1.85,.92-3.93,.97-5.77,1.02l-11.39,.29c-.38,0-.76,.02-1.13,.02Z"/><path class="p" d="M45.8,58.09c-.15,0-.29-.09-.35-.23-.31-.7-.14-1.54,.46-2.19,.6-.65,1.42-.9,2.15-.65,.2,.07,.31,.29,.24,.49-.07,.2-.29,.31-.49,.24-.52-.18-1.04,.12-1.32,.44-.29,.31-.54,.86-.32,1.36,.09,.2,0,.42-.2,.51-.05,.02-.1,.03-.16,.03Z"/><path class="p" d="M81.81,57.38c-.09,0-.19-.03-.26-.1-.16-.15-.16-.39-.02-.55,.35-.37,.4-.99,.12-1.42s-.87-.62-1.35-.45c-.2,.07-.42-.03-.5-.23-.07-.2,.03-.42,.23-.5,.81-.29,1.78,.03,2.26,.75,.48,.72,.39,1.74-.2,2.37-.08,.08-.18,.12-.28,.12Z"/><g><path class="p" d="M42.78,69.95c-.21,0-.39-.17-.39-.39v-1.32c0-.21,.17-.39,.39-.39s.39,.17,.39,.39v1.32c0,.21-.17,.39-.39,.39Z"/><path class="p" d="M43.19,75.65s-.04,0-.06,0c-.21-.03-.36-.23-.32-.44l.23-1.54c.03-.21,.23-.35,.44-.32,.21,.03,.36,.23,.32,.44l-.23,1.53c-.03,.19-.19,.33-.38,.33Z"/><path class="p" d="M47.18,77.19c-.18,0-.35-.13-.38-.32-.1-.59-.02-1.22,.23-1.77,.09-.19,.32-.28,.51-.19,.19,.09,.28,.32,.19,.51-.19,.41-.25,.87-.17,1.31,.04,.21-.11,.41-.32,.45-.02,0-.04,0-.07,0Z"/><path class="p" d="M50.9,77.63c-.21,0-.39-.17-.39-.39v-1.1c0-.21,.17-.39,.39-.39s.39,.17,.39,.39v1.1c0,.21-.17,.39-.39,.39Z"/><path class="p" d="M56.83,78.73s-.04,0-.06,0c-.21-.03-.36-.23-.32-.44l.1-.64c.03-.21,.23-.36,.44-.32,.21,.03,.36,.23,.32,.44l-.1,.64c-.03,.19-.19,.33-.38,.33Z"/><path class="p" d="M63.41,78.07c-.21,0-.39-.17-.39-.39v-.88c0-.21,.17-.39,.39-.39s.39,.17,.39,.39v.88c0,.21-.17,.39-.39,.39Z"/><path class="p" d="M70.66,77.41s-.05,0-.08,0c-.21-.04-.35-.25-.3-.46l.22-1.1c.04-.21,.25-.35,.46-.3,.21,.04,.35,.25,.3,.46l-.22,1.1c-.04,.18-.2,.31-.38,.31Z"/><path class="p" d="M76.38,76.33c-.08,0-.16-.02-.23-.08-.17-.13-.21-.37-.08-.54,.16-.21,.21-.51,.13-.76-.06-.2,.05-.42,.26-.48,.21-.06,.42,.05,.48,.26,.15,.48,.05,1.04-.25,1.45-.08,.1-.19,.16-.31,.16Z"/><path class="p" d="M80.58,74.14c-.06,0-.11-.01-.17-.04-.19-.09-.27-.32-.18-.52,.19-.39,.24-.86,.13-1.29-.05-.21,.07-.42,.28-.47,.21-.06,.42,.07,.47,.28,.16,.6,.09,1.26-.18,1.82-.07,.14-.21,.22-.35,.22Z"/><path class="p" d="M82.73,71.05s-.09,0-.14-.02c-.2-.07-.3-.3-.23-.5,.21-.57,.28-1.18,.19-1.78-.03-.21,.11-.41,.33-.44,.21-.03,.41,.11,.44,.33,.11,.73,.03,1.48-.22,2.17-.06,.16-.21,.25-.36,.25Z"/><path class="p" d="M66.33,76.99s-.07,0-.1-.01c-.21-.06-.33-.27-.27-.47l.36-1.34c.06-.21,.27-.33,.47-.27,.21,.06,.33,.27,.27,.47l-.36,1.34c-.05,.17-.2,.29-.37,.29Z"/><path class="p" d="M54.38,77.19s-.03,0-.05,0c-.21-.03-.36-.22-.33-.43l.23-1.75c.03-.21,.23-.36,.43-.33,.21,.03,.36,.22,.33,.43l-.23,1.75c-.03,.2-.19,.34-.38,.34Z"/><path class="p" d="M46.73,74.56s-.07,0-.1-.01c-.21-.06-.33-.27-.27-.48l.42-1.54c.06-.21,.27-.33,.47-.27,.21,.06,.33,.27,.27,.47l-.42,1.54c-.05,.17-.2,.29-.37,.29Z"/><path class="p" d="M53.75,61.17c-.1,0-.2-.04-.27-.11-.15-.15-.15-.4,0-.55l.22-.22c.15-.15,.4-.15,.55,0s.15,.4,0,.55l-.22,.22c-.08,.08-.17,.11-.27,.11Z"/><path class="p" d="M56.17,62.71s-.08,0-.12-.02c-.2-.07-.31-.29-.25-.49l.22-.66c.07-.2,.29-.31,.49-.25,.2,.07,.31,.29,.25,.49l-.22,.66c-.05,.16-.21,.26-.37,.26Z"/><path class="p" d="M60.56,62.27c-.06,0-.12-.01-.17-.04-.19-.1-.27-.33-.17-.52l.22-.44c.09-.19,.33-.27,.52-.17,.19,.1,.27,.33,.17,.52l-.22,.44c-.07,.14-.2,.21-.35,.21Z"/><path class="p" d="M65.61,61.61h-.03c-.16-.01-.29-.12-.34-.27-.07-.22-.02-.42,.17-.59l.07-.15c.07-.14,.21-.23,.37-.21,.16,.01,.29,.12,.34,.26,.07,.22,.02,.42-.17,.59l-.07,.15c-.07,.13-.2,.21-.35,.21Z"/></g><path class="p" d="M61.41,73.56c-.12,0-.25-.06-.32-.17-.4-.6-.52-1.38-.33-2.14,.19-.76,.66-1.39,1.29-1.73,.19-.1,.42-.03,.52,.16,.1,.19,.03,.42-.16,.52-.44,.24-.77,.69-.91,1.24s-.05,1.1,.22,1.52c.12,.18,.07,.42-.11,.54-.07,.04-.14,.07-.22,.07Z"/></g></g></g></g></svg>
